<svg width="22" height="22" viewBox="0 0 22 22" fill="none" xmlns="http://www.w3.org/2000/svg">
<path d="M19 13.2V16.5H22V18.7H19V22H17V18.7H14V16.5H17V13.2H19ZM19.0082 0C19.556 0 20 0.489445 20 1.09274V11H18V2.2H2V17.5989L12 6.6L15 9.9V13.0119L12 9.71124L4.827 17.6H12V19.8H0.9918C0.44405 19.8 0 19.3106 0 18.7073V1.09274C0 0.489236 0.45531 0 0.9918 0H19.0082ZM6 4.4C7.10457 4.4 8 5.38497 8 6.6C8 7.81506 7.10457 8.8 6 8.8C4.89543 8.8 4 7.81506 4 6.6C4 5.38497 4.89543 4.4 6 4.4Z" fill="black"/>
</svg>
