<svg width="20" height="20" viewBox="0 0 20 20" fill="none" xmlns="http://www.w3.org/2000/svg">
<g clip-path="url(#clip0_1_1407)">
<path d="M18.3334 9.16671V16.6667H16.6667V14.1667H3.33341V16.6667H1.66675V3.33337H3.33341V11.6667H10.0001V5.83337H15.0001C15.8841 5.83337 16.732 6.18456 17.3571 6.80968C17.9822 7.43481 18.3334 8.28265 18.3334 9.16671ZM6.66675 10.8334C6.00371 10.8334 5.36782 10.57 4.89898 10.1011C4.43014 9.6323 4.16675 8.99642 4.16675 8.33337C4.16675 7.67033 4.43014 7.03445 4.89898 6.56561C5.36782 6.09677 6.00371 5.83337 6.66675 5.83337C7.32979 5.83337 7.96567 6.09677 8.43452 6.56561C8.90336 7.03445 9.16675 7.67033 9.16675 8.33337C9.16675 8.99642 8.90336 9.6323 8.43452 10.1011C7.96567 10.57 7.32979 10.8334 6.66675 10.8334Z" fill="#515070"/>
</g>
<defs>
<clipPath id="clip0_1_1407">
<rect width="20" height="20" fill="white"/>
</clipPath>
</defs>
</svg>
