<svg width="45" height="45" viewBox="0 0 45 45" fill="none" xmlns="http://www.w3.org/2000/svg">
<circle cx="22.5" cy="22.5" r="21.5" fill="white" stroke="#FF8E6E" stroke-width="2"/>
<path d="M15.0065 31.9922C15.0862 32.0026 15.1668 32.0026 15.2465 31.9922L19.2465 30.9166C19.4239 30.8712 19.5865 30.7745 19.7165 30.6369L32.0065 17.3745C32.379 16.9714 32.5881 16.4261 32.5881 15.8578C32.5881 15.2895 32.379 14.7442 32.0065 14.3412L30.4265 12.6309C30.2407 12.4309 30.0202 12.2722 29.7774 12.164C29.5346 12.0557 29.2743 12 29.0115 12C28.7487 12 28.4884 12.0557 28.2456 12.164C28.0028 12.2722 27.7822 12.4309 27.5965 12.6309L15.3065 25.8504C15.1773 25.9909 15.0842 26.1651 15.0365 26.3559L14.0365 30.6584C14.0005 30.7976 13.991 30.9432 14.0085 31.0864C14.026 31.2296 14.0701 31.3676 14.1382 31.492C14.2064 31.6165 14.2971 31.7249 14.405 31.8109C14.513 31.8968 14.6359 31.9585 14.7665 31.9922C14.8462 32.0026 14.9268 32.0026 15.0065 31.9922ZM29.0065 14.1476L30.5965 15.8578L29.0065 17.5681L27.4265 15.8578L29.0065 14.1476ZM16.9165 27.1627L26.0065 17.3745L27.5965 19.0847L18.4965 28.8729L16.3865 29.4322L16.9165 27.1627Z" fill="#515070"/>
</svg>
