<svg width="45" height="45" viewBox="0 0 45 45" fill="none" xmlns="http://www.w3.org/2000/svg">
<circle cx="22.5" cy="22.5" r="21.5" fill="white" stroke="#FF8E6E" stroke-width="2"/>
<path d="M24.1202 27.7739L19.9213 25.369C19.1914 26.1881 18.1526 26.7 17 26.7C14.7909 26.7 13 24.8196 13 22.5C13 20.1804 14.7909 18.3 17 18.3C18.1525 18.3 19.1912 18.8118 19.9212 19.6308L24.1202 17.226C24.0417 16.8976 24 16.5539 24 16.2C24 13.8804 25.7909 12 28 12C30.2091 12 32 13.8804 32 16.2C32 18.5196 30.2091 20.4 28 20.4C26.8474 20.4 25.8087 19.8881 25.0787 19.0691L20.8798 21.4739C20.9583 21.8023 21 22.146 21 22.5C21 22.854 20.9583 23.1976 20.8798 23.526L25.0788 25.9309C25.8087 25.1119 26.8474 24.6 28 24.6C30.2091 24.6 32 26.4804 32 28.8C32 31.1196 30.2091 33 28 33C25.7909 33 24 31.1196 24 28.8C24 28.446 24.0417 28.1023 24.1202 27.7739ZM17 24.6C18.1046 24.6 19 23.6598 19 22.5C19 21.3402 18.1046 20.4 17 20.4C15.8954 20.4 15 21.3402 15 22.5C15 23.6598 15.8954 24.6 17 24.6ZM28 18.3C29.1046 18.3 30 17.3598 30 16.2C30 15.0402 29.1046 14.1 28 14.1C26.8954 14.1 26 15.0402 26 16.2C26 17.3598 26.8954 18.3 28 18.3ZM28 30.9C29.1046 30.9 30 29.9598 30 28.8C30 27.6402 29.1046 26.7 28 26.7C26.8954 26.7 26 27.6402 26 28.8C26 29.9598 26.8954 30.9 28 30.9Z" fill="#515070"/>
</svg>
