<svg width="18" height="18" viewBox="0 0 18 18" fill="none" xmlns="http://www.w3.org/2000/svg">
<g clip-path="url(#clip0_41_6138)">
<path d="M3 2.25H15C15.1989 2.25 15.3897 2.32902 15.5303 2.46967C15.671 2.61032 15.75 2.80109 15.75 3V15C15.75 15.1989 15.671 15.3897 15.5303 15.5303C15.3897 15.671 15.1989 15.75 15 15.75H3C2.80109 15.75 2.61032 15.671 2.46967 15.5303C2.32902 15.3897 2.25 15.1989 2.25 15V3C2.25 2.80109 2.32902 2.61032 2.46967 2.46967C2.61032 2.32902 2.80109 2.25 3 2.25ZM3.75 3.75V14.25H14.25V3.75H3.75ZM8.25225 12L5.07 8.81775L6.1305 7.75725L8.25225 9.879L12.4943 5.63625L13.5555 6.69675L8.25225 12Z" fill="#FF8E6E"/>
</g>
<defs>
<clipPath id="clip0_41_6138">
<rect width="18" height="18" fill="white"/>
</clipPath>
</defs>
</svg>
