<svg width="18" height="18" viewBox="0 0 18 18" fill="none" xmlns="http://www.w3.org/2000/svg">
<path d="M0 18V16.0933L1.8 16.0931V2.58901C1.8 2.12828 2.11106 1.73348 2.53901 1.65106L11.0634 0.00932354C11.3568 -0.0471804 11.638 0.158968 11.6913 0.469773C11.6971 0.50354 11.7 0.537784 11.7 0.572094V1.79322L15.3 1.79339C15.7971 1.79339 16.2 2.2202 16.2 2.74672V16.0931L18 16.0933V18H14.4V3.70005L11.7 3.69988V18H0ZM9.89998 2.17131L3.60001 3.38464V16.0933H9.89998V2.17131ZM8.99998 8.46669V10.3734H7.20002V8.46669H8.99998Z" fill="#515070"/>
</svg>
