<svg width="14" height="14" viewBox="0 0 14 14" fill="none" xmlns="http://www.w3.org/2000/svg">
<path d="M10.4381 11.19C9.33888 11.8872 8.06358 12.2565 6.76188 12.2544C3.39188 12.2544 0.588125 9.82938 0 6.62938C0.268769 5.17357 1.00102 3.84369 2.0875 2.83812L0.131875 0.884375L1.01625 0L13.3906 12.375L12.5063 13.2588L10.4375 11.19H10.4381ZM2.97125 3.72312C2.12188 4.49537 1.5302 5.50986 1.27625 6.62938C1.47143 7.48341 1.86329 8.28009 2.42063 8.956C2.97796 9.6319 3.68539 10.1684 4.4866 10.5227C5.2878 10.877 6.16066 11.0394 7.03568 10.997C7.91071 10.9545 8.76374 10.7084 9.52688 10.2781L8.25938 9.01063C7.71981 9.35051 7.08075 9.49694 6.44702 9.4259C5.8133 9.35486 5.22253 9.07056 4.77161 8.61964C4.32069 8.16873 4.03639 7.57795 3.96535 6.94423C3.89431 6.3105 4.04074 5.67144 4.38063 5.13188L2.97125 3.72312ZM7.33313 8.08438L5.30688 6.05813C5.19567 6.34121 5.16949 6.6506 5.23157 6.94834C5.29364 7.24608 5.44126 7.51924 5.65632 7.7343C5.87139 7.94936 6.14454 8.09699 6.44229 8.15906C6.74003 8.22113 7.04942 8.19496 7.3325 8.08375L7.33313 8.08438ZM12.2663 9.49937L11.3719 8.60563C11.7897 8.01019 12.0871 7.33887 12.2475 6.62938C12.0776 5.88545 11.7583 5.18384 11.3088 4.56718C10.8594 3.95053 10.2892 3.4317 9.63305 3.04225C8.97685 2.6528 8.24831 2.40085 7.49171 2.30173C6.73511 2.2026 5.96625 2.25836 5.23188 2.46562L4.24563 1.47938C5.025 1.17313 5.87438 1.00437 6.76188 1.00437C10.1319 1.00437 12.9356 3.42938 13.5238 6.62938C13.3322 7.67044 12.9018 8.65286 12.2663 9.49937ZM6.58875 3.82187C6.98657 3.79729 7.38507 3.85754 7.75784 3.99864C8.13061 4.13973 8.46913 4.35844 8.75097 4.64028C9.03281 4.92212 9.25152 5.26064 9.39262 5.63341C9.53371 6.00618 9.59396 6.40468 9.56938 6.8025L6.58813 3.82187H6.58875Z" fill="#515070"/>
</svg>
