<svg width="45" height="45" viewBox="0 0 45 45" fill="none" xmlns="http://www.w3.org/2000/svg">
<circle cx="22.5" cy="22.5" r="21.5" fill="white" stroke="#FF8E6E" stroke-width="2"/>
<path d="M22.501 14.7172C24.9479 12.5208 28.7291 12.5938 31.086 14.9556C33.443 17.3174 33.5239 21.0802 31.3319 23.5344L22.4999 32.3802L13.6681 23.5344C11.4761 21.0802 11.558 17.3115 13.9139 14.9556C16.2724 12.597 20.0471 12.5176 22.501 14.7172ZM29.6114 16.4272C28.0499 14.8624 25.5287 14.799 23.8927 16.2676L22.502 17.5159L21.1105 16.2686C19.4697 14.7979 16.9532 14.8626 15.387 16.4287C13.8352 17.9805 13.7573 20.4659 15.1874 22.1075L22.4999 29.4316L29.8126 22.1075C31.2432 20.4653 31.1656 17.9846 29.6114 16.4272Z" fill="#515070"/>
</svg>
