<svg width="90" height="89" viewBox="0 0 90 89" fill="none" xmlns="http://www.w3.org/2000/svg">
<path d="M0 44.5C0 19.9233 20.1472 0 45 0C69.8528 0 90 19.9233 90 44.5C90 69.0767 69.8528 89 45 89C20.1472 89 0 69.0767 0 44.5Z" fill="white"/>
<path d="M45.0001 32.6729C48.6617 32.6729 51.1317 34.237 52.5401 35.544L58.0434 30.2303C54.6634 27.1236 50.2651 25.2167 45.0001 25.2167C37.3734 25.2167 30.7867 29.5447 27.5801 35.8439L33.8851 40.6862C35.4667 36.0368 39.8434 32.6729 45.0001 32.6729Z" fill="#EA4335"/>
<path d="M63.72 44.9285C63.72 43.343 63.59 42.186 63.3083 40.9862H45V48.1424H55.7467C55.53 49.9208 54.36 52.599 51.76 54.3988L57.9133 59.1125C61.5967 55.7486 63.72 50.7992 63.72 44.9285Z" fill="#4285F4"/>
<path d="M33.9067 48.3138C33.495 47.114 33.2567 45.8284 33.2567 44.5C33.2567 43.1716 33.495 41.886 33.885 40.6862L27.58 35.8439C26.2583 38.4579 25.5 41.3932 25.5 44.5C25.5 47.6068 26.2583 50.5421 27.58 53.1561L33.9067 48.3138Z" fill="#FBBC05"/>
<path d="M44.9999 63.7833C50.2649 63.7833 54.6849 62.0693 57.9132 59.1125L51.7599 54.3988C50.1132 55.5344 47.9032 56.3271 44.9999 56.3271C39.8432 56.3271 35.4666 52.9633 33.9066 48.3138L27.6016 53.1561C30.8082 59.4553 37.3732 63.7833 44.9999 63.7833Z" fill="#34A853"/>
</svg>
