<svg width="65" height="54" viewBox="0 0 65 54" fill="none" xmlns="http://www.w3.org/2000/svg">
<path d="M2 52V49.0589C2 37.6883 10.6863 28.4706 21.4013 28.4706C32.1164 28.4706 40.8027 37.6883 40.8027 49.0589V52" stroke="white" stroke-width="3.45" stroke-linecap="round"/>
<path d="M35.2593 34.3529C35.2593 26.2312 41.4638 19.647 49.1174 19.647C56.7709 19.647 62.9755 26.2312 62.9755 34.3529V35.8235" stroke="white" stroke-width="3.45" stroke-linecap="round"/>
<path d="M21.4009 28.4706C27.5237 28.4706 32.4874 23.2032 32.4874 16.7059C32.4874 10.2084 27.5237 4.94116 21.4009 4.94116C15.278 4.94116 10.3145 10.2084 10.3145 16.7059C10.3145 23.2032 15.278 28.4706 21.4009 28.4706Z" stroke="white" stroke-width="3.45" stroke-linecap="round" stroke-linejoin="round"/>
<path d="M49.1176 19.6471C53.7099 19.6471 57.4325 15.6966 57.4325 10.8235C57.4325 5.95044 53.7099 2 49.1176 2C44.5253 2 40.8027 5.95044 40.8027 10.8235C40.8027 15.6966 44.5253 19.6471 49.1176 19.6471Z" stroke="white" stroke-width="3.45" stroke-linecap="round" stroke-linejoin="round"/>
</svg>
