<svg width="14" height="14" viewBox="0 0 14 14" fill="none" xmlns="http://www.w3.org/2000/svg">
<g clip-path="url(#clip0_41_6121)">
<path fill-rule="evenodd" clip-rule="evenodd" d="M6.72666 0.825057C6.88644 0.69723 7.11348 0.69723 7.27326 0.825057L13.1066 5.49172C13.2104 5.57475 13.2708 5.70045 13.2708 5.83335V12.8334C13.2708 13.075 13.0749 13.2709 12.8333 13.2709H9.33329C9.09167 13.2709 8.89579 13.075 8.89579 12.8334V8.02085H5.10413V12.8334C5.10413 13.075 4.90825 13.2709 4.66663 13.2709H1.16663C0.925001 13.2709 0.729126 13.075 0.729126 12.8334V5.83335C0.729126 5.70045 0.78954 5.57475 0.893322 5.49172L6.72666 0.825057ZM1.60413 6.04363V12.3959H4.22913V7.58335C4.22913 7.34173 4.425 7.14585 4.66663 7.14585H9.33329C9.57492 7.14585 9.77079 7.34173 9.77079 7.58335V12.3959H12.3958V6.04363L6.99996 1.72696L1.60413 6.04363Z" fill="#FF8E6E"/>
<path fill-rule="evenodd" clip-rule="evenodd" d="M7 9.47919C7.24162 9.47919 7.4375 9.67506 7.4375 9.91669V12.8334C7.4375 13.075 7.24162 13.2709 7 13.2709C6.75838 13.2709 6.5625 13.075 6.5625 12.8334V9.91669C6.5625 9.67506 6.75838 9.47919 7 9.47919Z" fill="#FF8E6E"/>
</g>
<defs>
<clipPath id="clip0_41_6121">
<rect width="14" height="14" fill="white"/>
</clipPath>
</defs>
</svg>
