<svg width="30" height="30" viewBox="0 0 30 30" fill="none" xmlns="http://www.w3.org/2000/svg">
<path d="M25 25.0001C25 25.6905 24.4404 26.2501 23.75 26.2501H6.25C5.55965 26.2501 5 25.6905 5 25.0001V13.7501H1.25L14.1591 2.01452C14.6359 1.5811 15.3641 1.5811 15.8409 2.01452L28.75 13.7501H25V25.0001ZM22.5 23.7501V11.447L15 4.62877L7.5 11.447V23.7501H22.5ZM15 21.2501L10.8015 17.0516C9.7032 15.9534 9.7032 14.1725 10.8015 13.0742C11.8999 11.9758 13.6806 11.9758 14.779 13.0742L15 13.2951L15.221 13.0742C16.3194 11.9758 18.1001 11.9758 19.1985 13.0742C20.2967 14.1725 20.2967 15.9534 19.1985 17.0516L15 21.2501Z" fill="black"/>
</svg>
