<svg width="18" height="18" viewBox="0 0 18 18" fill="none" xmlns="http://www.w3.org/2000/svg">
<g clip-path="url(#clip0_1_989)">
<path fill-rule="evenodd" clip-rule="evenodd" d="M8.64861 1.06076C8.85404 0.896413 9.14596 0.896413 9.35139 1.06076L16.8514 7.06076C16.9848 7.16751 17.0625 7.32912 17.0625 7.5V16.5C17.0625 16.8107 16.8107 17.0625 16.5 17.0625H12C11.6893 17.0625 11.4375 16.8107 11.4375 16.5V10.3125H6.5625V16.5C6.5625 16.8107 6.31066 17.0625 6 17.0625H1.5C1.18934 17.0625 0.9375 16.8107 0.9375 16.5V7.5C0.9375 7.32912 1.01518 7.16751 1.14861 7.06076L8.64861 1.06076ZM2.0625 7.77035V15.9375H5.4375V9.75C5.4375 9.43934 5.68934 9.1875 6 9.1875H12C12.3107 9.1875 12.5625 9.43934 12.5625 9.75V15.9375H15.9375V7.77035L9 2.22035L2.0625 7.77035Z" fill="#515070"/>
<path fill-rule="evenodd" clip-rule="evenodd" d="M9 12.1875C9.31066 12.1875 9.5625 12.4393 9.5625 12.75V16.5C9.5625 16.8107 9.31066 17.0625 9 17.0625C8.68934 17.0625 8.4375 16.8107 8.4375 16.5V12.75C8.4375 12.4393 8.68934 12.1875 9 12.1875Z" fill="#515070"/>
</g>
<defs>
<clipPath id="clip0_1_989">
<rect width="18" height="18" fill="white"/>
</clipPath>
</defs>
</svg>
