<svg width="18" height="18" viewBox="0 0 18 18" fill="none" xmlns="http://www.w3.org/2000/svg">
<g clip-path="url(#clip0_1_915)">
<path d="M17.0864 0H0.913607C0.40984 0 0 0.40984 0 0.913607V17.0864C0 17.5902 0.40984 18 0.913607 18H3.40173C5.37236 18 7.28417 17.614 9.08413 16.8527C10.8225 16.1174 12.3837 15.0648 13.7242 13.7242C15.0648 12.3837 16.1174 10.8225 16.8527 9.08413C17.614 7.28417 18 5.37236 18 3.40173V0.913607C18 0.40984 17.5902 0 17.0864 0ZM17.4168 3.40173C17.4168 7.1453 15.959 10.6648 13.3119 13.3119C10.6648 15.959 7.1453 17.4168 3.40173 17.4168H0.913607C0.731391 17.4168 0.583153 17.2686 0.583153 17.0864V0.913607C0.583153 0.731391 0.731391 0.583153 0.913607 0.583153H17.0864C17.2686 0.583153 17.4168 0.731391 17.4168 0.913607V3.40173Z" fill="#515070"/>
<path d="M14.5983 1.55518H3.40171C2.38344 1.55518 1.55505 2.38356 1.55505 3.40183V14.5984C1.55505 15.6166 2.38348 16.445 3.40171 16.445C5.76352 16.445 8.07875 15.8056 10.0971 14.5958C10.1741 14.5496 10.2256 14.4705 10.2366 14.3814C10.2476 14.2923 10.2169 14.203 10.1533 14.1395C9.94951 13.9357 9.83723 13.6647 9.83723 13.3764C9.83723 13.0882 9.94951 12.8172 10.1533 12.6133L11.1771 11.5896L11.904 12.3165C11.9609 12.3734 12.0355 12.4019 12.1101 12.4019C12.1847 12.4019 12.2594 12.3734 12.3163 12.3165C12.4302 12.2026 12.4302 12.018 12.3163 11.9041L11.5894 11.1772L12.6132 10.1535C13.034 9.7327 13.7186 9.7327 14.1394 10.1535C14.203 10.217 14.2922 10.2476 14.3813 10.2367C14.4704 10.2257 14.5495 10.1743 14.5957 10.0972C15.8055 8.07884 16.4449 5.7636 16.4449 3.40183C16.4449 2.38356 15.6165 1.55518 14.5983 1.55518ZM14.2626 9.50993C13.6205 9.10526 12.7596 9.18232 12.2008 9.74109L11.1771 10.7648L10.2947 9.88245C10.1808 9.76858 9.9962 9.76858 9.88237 9.88245C9.7685 9.99632 9.7685 10.1809 9.88237 10.2948L10.7648 11.1772L9.74101 12.2009C9.18219 12.7597 9.10514 13.6206 9.50985 14.2627C7.65114 15.3098 5.54651 15.8619 3.40171 15.8619C2.70503 15.8619 2.13821 15.2951 2.13821 14.5984V3.40183C2.13821 2.70512 2.70499 2.13833 3.40171 2.13833H14.5983C15.2949 2.13833 15.8617 2.70515 15.8617 3.40183C15.8617 5.54663 15.3097 7.65127 14.2626 9.50993Z" fill="#515070"/>
<path d="M13.0432 10.8855C12.9662 10.8855 12.8912 10.9166 12.8372 10.971C12.7827 11.0251 12.7516 11.1005 12.7516 11.1771C12.7516 11.2541 12.7827 11.3291 12.8372 11.3831C12.8912 11.4375 12.9666 11.4687 13.0432 11.4687C13.1198 11.4687 13.1952 11.4375 13.2493 11.3831C13.3037 11.3291 13.3348 11.2537 13.3348 11.1771C13.3348 11.1005 13.3037 11.0251 13.2493 10.971C13.1952 10.9166 13.1202 10.8855 13.0432 10.8855Z" fill="#515070"/>
<path d="M11.1771 12.7517C11.1005 12.7517 11.0251 12.7828 10.9711 12.8372C10.9167 12.8913 10.8856 12.9667 10.8856 13.0433C10.8856 13.1203 10.9167 13.1953 10.9711 13.2493C11.0251 13.3038 11.1005 13.3349 11.1771 13.3349C11.2537 13.3349 11.3291 13.3038 11.3832 13.2493C11.4376 13.1953 11.4687 13.1199 11.4687 13.0433C11.4687 12.9667 11.4376 12.8913 11.3832 12.8372C11.3291 12.7828 11.2537 12.7517 11.1771 12.7517Z" fill="#515070"/>
<path d="M9.00001 2.79907C8.92342 2.79907 8.848 2.83017 8.79396 2.8846C8.73954 2.93864 8.70844 3.01406 8.70844 3.09065C8.70844 3.16724 8.73954 3.24266 8.79396 3.2967C8.848 3.35112 8.92342 3.38223 9.00001 3.38223C9.0766 3.38223 9.15202 3.35112 9.20606 3.2967C9.26049 3.24266 9.29159 3.16724 9.29159 3.09065C9.29159 3.01406 9.26049 2.93864 9.20606 2.8846C9.15202 2.83017 9.0766 2.79907 9.00001 2.79907Z" fill="#515070"/>
<path d="M3.09071 8.7085C3.01412 8.7085 2.9387 8.7396 2.88466 8.79403C2.83023 8.84806 2.79913 8.9231 2.79913 9.00007C2.79913 9.07666 2.83023 9.15208 2.88466 9.20612C2.9387 9.26055 3.01412 9.29165 3.09071 9.29165C3.1673 9.29165 3.24272 9.26055 3.29676 9.20612C3.35119 9.15208 3.38229 9.07666 3.38229 9.00007C3.38229 8.9231 3.35119 8.84806 3.29676 8.79403C3.24272 8.7396 3.1673 8.7085 3.09071 8.7085Z" fill="#515070"/>
<path d="M3.09071 7.46436C3.01412 7.46436 2.9387 7.49546 2.88466 7.54988C2.83023 7.60392 2.79913 7.67934 2.79913 7.75593C2.79913 7.83252 2.83023 7.90794 2.88466 7.96198C2.9387 8.01641 3.01412 8.04751 3.09071 8.04751C3.1673 8.04751 3.24272 8.01641 3.29676 7.96198C3.35119 7.90794 3.38229 7.83252 3.38229 7.75593C3.38229 7.67896 3.35119 7.60392 3.29676 7.54988C3.24272 7.49546 3.1673 7.46436 3.09071 7.46436Z" fill="#515070"/>
<path d="M3.09071 9.95239C3.01373 9.95239 2.9387 9.98349 2.88466 10.0379C2.83023 10.092 2.79913 10.1674 2.79913 10.244C2.79913 10.3209 2.83023 10.396 2.88466 10.45C2.9387 10.5044 3.01373 10.5355 3.09071 10.5355C3.1673 10.5355 3.24272 10.5044 3.29676 10.45C3.35119 10.396 3.38229 10.3209 3.38229 10.244C3.38229 10.167 3.35119 10.092 3.29676 10.0379C3.24272 9.98349 3.1673 9.95239 3.09071 9.95239Z" fill="#515070"/>
<path d="M7.75593 2.79907C7.67934 2.79907 7.60392 2.83017 7.54988 2.8846C7.49546 2.93864 7.46436 3.01406 7.46436 3.09065C7.46436 3.16724 7.49546 3.24266 7.54988 3.2967C7.60392 3.35112 7.67934 3.38223 7.75593 3.38223C7.83252 3.38223 7.90794 3.35112 7.96198 3.2967C8.01641 3.24266 8.04751 3.16724 8.04751 3.09065C8.04751 3.01406 8.01641 2.93864 7.96198 2.8846C7.90794 2.83017 7.83252 2.79907 7.75593 2.79907Z" fill="#515070"/>
<path d="M10.2441 2.79907C10.1675 2.79907 10.0921 2.83017 10.038 2.8846C9.98362 2.93864 9.95251 3.01367 9.95251 3.09065C9.95251 3.16724 9.98362 3.24266 10.038 3.2967C10.0921 3.35112 10.1675 3.38223 10.2441 3.38223C10.3207 3.38223 10.3961 3.35112 10.4501 3.2967C10.5046 3.24266 10.5357 3.16724 10.5357 3.09065C10.5357 3.01406 10.5046 2.93864 10.4501 2.8846C10.3961 2.83017 10.3207 2.79907 10.2441 2.79907Z" fill="#515070"/>
</g>
<defs>
<clipPath id="clip0_1_915">
<rect width="18" height="18" fill="white"/>
</clipPath>
</defs>
</svg>
