<svg width="18" height="18" viewBox="0 0 18 18" fill="none" xmlns="http://www.w3.org/2000/svg">
<path d="M8.23974 0C12.7904 0 16.4795 3.68905 16.4795 8.23974C16.4795 9.56599 16.1661 10.8191 15.6095 11.9291L17.746 14.0661C18.0847 14.4048 18.0847 14.954 17.746 15.2927L15.2927 17.746C14.954 18.0847 14.4048 18.0847 14.0661 17.746L11.9291 15.6095C10.8191 16.1661 9.56599 16.4795 8.23974 16.4795C3.68905 16.4795 0 12.7904 0 8.23974C0 3.68905 3.68905 0 8.23974 0ZM12.8395 11.6117L11.6129 12.8383L14.6794 15.9049L15.906 14.6783L12.8395 11.6117ZM14.4559 6.31689L6.31689 14.4559C6.9246 14.6437 7.57033 14.7448 8.23974 14.7448C9.07855 14.7448 9.88023 14.5861 10.6165 14.2969L9.77303 13.4528C9.43425 13.1141 9.43425 12.5649 9.77303 12.2262L12.2262 9.77303C12.5649 9.43425 13.1141 9.43425 13.4528 9.77303L14.2969 10.6165C14.5861 9.88023 14.7448 9.07855 14.7448 8.23974C14.7448 7.57033 14.6437 6.9246 14.4559 6.31689ZM8.23974 1.73468C4.64709 1.73468 1.73468 4.64709 1.73468 8.23974C1.73468 10.5065 2.89414 12.5026 4.65237 13.667L13.667 4.65237C12.5026 2.89414 10.5065 1.73468 8.23974 1.73468Z" fill="#515070"/>
</svg>
