<svg width="14" height="14" viewBox="0 0 14 14" fill="none" xmlns="http://www.w3.org/2000/svg">
<g clip-path="url(#clip0_41_6120)">
<path d="M10.518 9.69327L13.0165 12.1911L12.191 13.0165L9.69321 10.5181C8.76381 11.2632 7.60779 11.6684 6.41663 11.6667C3.51863 11.6667 1.16663 9.31469 1.16663 6.41669C1.16663 3.51869 3.51863 1.16669 6.41663 1.16669C9.31463 1.16669 11.6666 3.51869 11.6666 6.41669C11.6683 7.60785 11.2631 8.76387 10.518 9.69327ZM9.34788 9.26044C10.0882 8.49912 10.5016 7.4786 10.5 6.41669C10.5 4.16035 8.67238 2.33335 6.41663 2.33335C4.16029 2.33335 2.33329 4.16035 2.33329 6.41669C2.33329 8.67244 4.16029 10.5 6.41663 10.5C7.47854 10.5017 8.49906 10.0883 9.26038 9.34794L9.34788 9.26044ZM7.10379 4.18602C6.93179 4.26372 6.7812 4.38199 6.66495 4.53069C6.5487 4.67938 6.47026 4.85406 6.43637 5.03974C6.40247 5.22541 6.41413 5.41654 6.47035 5.59671C6.52656 5.77689 6.62565 5.94074 6.75911 6.0742C6.89257 6.20766 7.05642 6.30675 7.2366 6.36297C7.41678 6.41918 7.6079 6.43084 7.79358 6.39695C7.97925 6.36305 8.15393 6.28462 8.30263 6.16837C8.45132 6.05212 8.56959 5.90153 8.64729 5.72952C8.80059 6.22747 8.78282 6.7624 8.59682 7.24908C8.41082 7.73575 8.06728 8.14618 7.62095 8.41495C7.17462 8.68373 6.65117 8.79539 6.13401 8.73214C5.61686 8.6689 5.13574 8.43439 4.76733 8.06598C4.39892 7.69757 4.16441 7.21646 4.10117 6.6993C4.03793 6.18214 4.14959 5.65869 4.41836 5.21236C4.68714 4.76603 5.09756 4.4225 5.58424 4.23649C6.07092 4.05049 6.60585 4.03272 7.10379 4.18602Z" fill="#FF8E6E"/>
</g>
<defs>
<clipPath id="clip0_41_6120">
<rect width="14" height="14" fill="white"/>
</clipPath>
</defs>
</svg>
