<svg width="1024" height="1024" viewBox="0 0 1024 1024" fill="none" xmlns="http://www.w3.org/2000/svg">
<rect width="1024" height="1024" fill="white"/>
<path d="M173.604 759.636H203.945L235.991 837.818H237.354L269.4 759.636H299.741V876H275.877V800.261H274.911L244.797 875.432H228.547L198.434 799.977H197.468V876H173.604V759.636ZM334.259 908.727C331.191 908.727 328.312 908.481 325.623 907.989C322.971 907.534 320.774 906.947 319.032 906.227L324.486 888.159C327.327 889.03 329.884 889.504 332.157 889.58C334.467 889.655 336.456 889.125 338.123 887.989C339.827 886.852 341.21 884.92 342.271 882.193L343.691 878.5L312.384 788.727H337.839L355.907 852.818H356.816L375.055 788.727H400.68L366.759 885.432C365.13 890.129 362.914 894.22 360.111 897.705C357.346 901.227 353.842 903.936 349.6 905.83C345.358 907.761 340.244 908.727 334.259 908.727ZM413.281 876V759.636H437.883V807.648H487.826V759.636H512.371V876H487.826V827.932H437.883V876H413.281ZM571.393 877.705C562.567 877.705 554.934 875.83 548.495 872.08C542.094 868.292 537.15 863.027 533.666 856.284C530.181 849.504 528.438 841.644 528.438 832.705C528.438 823.689 530.181 815.811 533.666 809.068C537.15 802.288 542.094 797.023 548.495 793.273C554.934 789.485 562.567 787.591 571.393 787.591C580.219 787.591 587.832 789.485 594.234 793.273C600.673 797.023 605.635 802.288 609.12 809.068C612.605 815.811 614.347 823.689 614.347 832.705C614.347 841.644 612.605 849.504 609.12 856.284C605.635 863.027 600.673 868.292 594.234 872.08C587.832 875.83 580.219 877.705 571.393 877.705ZM571.506 858.955C575.522 858.955 578.874 857.818 581.563 855.545C584.253 853.235 586.279 850.091 587.643 846.114C589.044 842.136 589.745 837.61 589.745 832.534C589.745 827.458 589.044 822.932 587.643 818.955C586.279 814.977 584.253 811.833 581.563 809.523C578.874 807.212 575.522 806.057 571.506 806.057C567.453 806.057 564.044 807.212 561.279 809.523C558.552 811.833 556.487 814.977 555.086 818.955C553.722 822.932 553.041 827.458 553.041 832.534C553.041 837.61 553.722 842.136 555.086 846.114C556.487 850.091 558.552 853.235 561.279 855.545C564.044 857.818 567.453 858.955 571.506 858.955ZM629.846 876V788.727H652.914V804.125H653.937C655.755 799.011 658.785 794.977 663.028 792.023C667.27 789.068 672.346 787.591 678.255 787.591C684.24 787.591 689.335 789.087 693.539 792.08C697.744 795.034 700.547 799.049 701.948 804.125H702.857C704.638 799.125 707.857 795.129 712.516 792.136C717.213 789.106 722.763 787.591 729.164 787.591C737.308 787.591 743.918 790.186 748.994 795.375C754.107 800.527 756.664 807.837 756.664 817.307V876H732.516V822.08C732.516 817.231 731.229 813.595 728.653 811.17C726.077 808.746 722.857 807.534 718.994 807.534C714.6 807.534 711.172 808.936 708.71 811.739C706.247 814.504 705.016 818.159 705.016 822.705V876H681.551V821.568C681.551 817.288 680.319 813.879 677.857 811.341C675.433 808.803 672.232 807.534 668.255 807.534C665.566 807.534 663.141 808.216 660.982 809.58C658.861 810.905 657.176 812.78 655.926 815.205C654.676 817.591 654.051 820.394 654.051 823.614V876H629.846ZM815.316 877.705C806.339 877.705 798.612 875.886 792.134 872.25C785.695 868.576 780.733 863.386 777.248 856.682C773.763 849.939 772.021 841.966 772.021 832.761C772.021 823.784 773.763 815.905 777.248 809.125C780.733 802.345 785.638 797.061 791.964 793.273C798.328 789.485 805.79 787.591 814.35 787.591C820.108 787.591 825.468 788.519 830.43 790.375C835.43 792.193 839.786 794.939 843.498 798.614C847.248 802.288 850.165 806.909 852.248 812.477C854.331 818.008 855.373 824.485 855.373 831.909V838.557H781.68V823.557H832.589C832.589 820.072 831.831 816.985 830.316 814.295C828.801 811.606 826.699 809.504 824.009 807.989C821.358 806.436 818.271 805.659 814.748 805.659C811.074 805.659 807.816 806.511 804.975 808.216C802.172 809.883 799.975 812.136 798.384 814.977C796.793 817.78 795.979 820.905 795.941 824.352V838.614C795.941 842.932 796.737 846.663 798.328 849.807C799.956 852.951 802.248 855.375 805.203 857.08C808.157 858.784 811.661 859.636 815.714 859.636C818.403 859.636 820.865 859.258 823.1 858.5C825.335 857.742 827.248 856.606 828.839 855.091C830.43 853.576 831.642 851.72 832.475 849.523L854.862 851C853.725 856.379 851.396 861.076 847.873 865.091C844.388 869.068 839.881 872.174 834.35 874.409C828.858 876.606 822.513 877.705 815.316 877.705Z" fill="#515070"/>
<path d="M173.604 759.636V758.636H172.604V759.636H173.604ZM203.945 759.636L204.87 759.257L204.616 758.636H203.945V759.636ZM235.991 837.818L235.065 838.197L235.32 838.818H235.991V837.818ZM237.354 837.818V838.818H238.025L238.28 838.197L237.354 837.818ZM269.4 759.636V758.636H268.729L268.474 759.257L269.4 759.636ZM299.741 759.636H300.741V758.636H299.741V759.636ZM299.741 876V877H300.741V876H299.741ZM275.877 876H274.877V877H275.877V876ZM275.877 800.261H276.877V799.261H275.877V800.261ZM274.911 800.261V799.261H274.234L273.983 799.889L274.911 800.261ZM244.797 875.432V876.432H245.474L245.726 875.804L244.797 875.432ZM228.547 875.432L227.619 875.802L227.87 876.432H228.547V875.432ZM198.434 799.977L199.363 799.607L199.111 798.977H198.434V799.977ZM197.468 799.977V798.977H196.468V799.977H197.468ZM197.468 876V877H198.468V876H197.468ZM173.604 876H172.604V877H173.604V876ZM173.604 760.636H203.945V758.636H173.604V760.636ZM203.02 760.016L235.065 838.197L236.916 837.439L204.87 759.257L203.02 760.016ZM235.991 838.818H237.354V836.818H235.991V838.818ZM238.28 838.197L270.325 760.016L268.474 759.257L236.429 837.439L238.28 838.197ZM269.4 760.636H299.741V758.636H269.4V760.636ZM298.741 759.636V876H300.741V759.636H298.741ZM299.741 875H275.877V877H299.741V875ZM276.877 876V800.261H274.877V876H276.877ZM275.877 799.261H274.911V801.261H275.877V799.261ZM273.983 799.889L243.869 875.06L245.726 875.804L275.839 800.633L273.983 799.889ZM244.797 874.432H228.547V876.432H244.797V874.432ZM229.476 875.061L199.363 799.607L197.505 800.348L227.619 875.802L229.476 875.061ZM198.434 798.977H197.468V800.977H198.434V798.977ZM196.468 799.977V876H198.468V799.977H196.468ZM197.468 875H173.604V877H197.468V875ZM174.604 876V759.636H172.604V876H174.604ZM325.623 907.989L325.803 907.005L325.792 907.003L325.623 907.989ZM319.032 906.227L318.075 905.938L317.813 906.806L318.65 907.152L319.032 906.227ZM324.486 888.159L324.78 887.203L323.819 886.909L323.529 887.87L324.486 888.159ZM332.157 889.58L332.124 890.579L332.124 890.579L332.157 889.58ZM338.123 887.989L337.568 887.157L337.559 887.162L338.123 887.989ZM342.271 882.193L343.203 882.556L343.204 882.552L342.271 882.193ZM343.691 878.5L344.624 878.859L344.756 878.517L344.635 878.171L343.691 878.5ZM312.384 788.727V787.727H310.976L311.44 789.057L312.384 788.727ZM337.839 788.727L338.801 788.456L338.596 787.727H337.839V788.727ZM355.907 852.818L354.944 853.09L355.15 853.818H355.907V852.818ZM356.816 852.818V853.818H357.571L357.778 853.092L356.816 852.818ZM375.055 788.727V787.727H374.299L374.093 788.454L375.055 788.727ZM400.68 788.727L401.623 789.058L402.09 787.727H400.68V788.727ZM366.759 885.432L365.816 885.101L365.814 885.104L366.759 885.432ZM360.111 897.705L359.332 897.078L359.325 897.087L360.111 897.705ZM349.6 905.83L349.192 904.916L349.186 904.919L349.6 905.83ZM334.259 907.727C331.244 907.727 328.426 907.485 325.803 907.005L325.443 908.972C328.198 909.477 331.138 909.727 334.259 909.727V907.727ZM325.792 907.003C323.185 906.556 321.065 905.985 319.414 905.303L318.65 907.152C320.483 907.909 322.758 908.512 325.454 908.974L325.792 907.003ZM319.989 906.516L325.444 888.448L323.529 887.87L318.075 905.938L319.989 906.516ZM324.193 889.115C327.094 890.005 329.741 890.5 332.124 890.579L332.19 888.58C330.028 888.508 327.56 888.056 324.78 887.203L324.193 889.115ZM332.124 890.579C334.615 890.661 336.819 890.088 338.686 888.815L337.559 887.162C336.093 888.162 334.32 888.65 332.19 888.58L332.124 890.579ZM338.677 888.821C340.612 887.531 342.098 885.396 343.203 882.556L341.339 881.831C340.322 884.445 339.043 886.174 337.568 887.157L338.677 888.821ZM343.204 882.552L344.624 878.859L342.758 878.141L341.337 881.834L343.204 882.552ZM344.635 878.171L313.328 788.398L311.44 789.057L342.747 878.829L344.635 878.171ZM312.384 789.727H337.839V787.727H312.384V789.727ZM336.876 788.999L354.944 853.09L356.869 852.547L338.801 788.456L336.876 788.999ZM355.907 853.818H356.816V851.818H355.907V853.818ZM357.778 853.092L376.016 789.001L374.093 788.454L355.854 852.544L357.778 853.092ZM375.055 789.727H400.68V787.727H375.055V789.727ZM399.736 788.396L365.816 885.101L367.703 885.763L401.623 789.058L399.736 788.396ZM365.814 885.104C364.219 889.705 362.056 893.692 359.332 897.078L360.891 898.331C363.773 894.748 366.042 890.553 367.704 885.759L365.814 885.104ZM359.325 897.087C356.664 900.477 353.292 903.086 349.192 904.916L350.008 906.743C354.393 904.785 358.029 901.978 360.898 898.322L359.325 897.087ZM349.186 904.919C345.105 906.778 340.14 907.727 334.259 907.727V909.727C340.348 909.727 345.611 908.745 350.014 906.74L349.186 904.919ZM413.281 876H412.281V877H413.281V876ZM413.281 759.636V758.636H412.281V759.636H413.281ZM437.883 759.636H438.883V758.636H437.883V759.636ZM437.883 807.648H436.883V808.648H437.883V807.648ZM487.826 807.648V808.648H488.826V807.648H487.826ZM487.826 759.636V758.636H486.826V759.636H487.826ZM512.371 759.636H513.371V758.636H512.371V759.636ZM512.371 876V877H513.371V876H512.371ZM487.826 876H486.826V877H487.826V876ZM487.826 827.932H488.826V826.932H487.826V827.932ZM437.883 827.932V826.932H436.883V827.932H437.883ZM437.883 876V877H438.883V876H437.883ZM414.281 876V759.636H412.281V876H414.281ZM413.281 760.636H437.883V758.636H413.281V760.636ZM436.883 759.636V807.648H438.883V759.636H436.883ZM437.883 808.648H487.826V806.648H437.883V808.648ZM488.826 807.648V759.636H486.826V807.648H488.826ZM487.826 760.636H512.371V758.636H487.826V760.636ZM511.371 759.636V876H513.371V759.636H511.371ZM512.371 875H487.826V877H512.371V875ZM488.826 876V827.932H486.826V876H488.826ZM487.826 826.932H437.883V828.932H487.826V826.932ZM436.883 827.932V876H438.883V827.932H436.883ZM437.883 875H413.281V877H437.883V875ZM548.495 872.08L547.986 872.94L547.992 872.944L548.495 872.08ZM533.666 856.284L532.776 856.741L532.777 856.743L533.666 856.284ZM533.666 809.068L534.554 809.527L534.555 809.525L533.666 809.068ZM548.495 793.273L549.001 794.136L549.002 794.135L548.495 793.273ZM594.234 793.273L593.724 794.133L593.73 794.137L594.234 793.273ZM609.12 809.068L608.231 809.525L608.232 809.527L609.12 809.068ZM609.12 856.284L610.008 856.743L610.009 856.741L609.12 856.284ZM594.234 872.08L594.739 872.942L594.741 872.941L594.234 872.08ZM581.563 855.545L582.209 856.309L582.215 856.304L581.563 855.545ZM587.643 846.114L586.7 845.781L586.697 845.789L587.643 846.114ZM587.643 818.955L586.697 819.279L586.7 819.287L587.643 818.955ZM561.279 809.523L560.638 808.755L560.633 808.76L561.279 809.523ZM555.086 818.955L554.143 818.622L554.14 818.63L555.086 818.955ZM555.086 846.114L554.14 846.438L554.143 846.446L555.086 846.114ZM561.279 855.545L560.633 856.308L560.638 856.313L560.644 856.318L561.279 855.545ZM571.393 876.705C562.711 876.705 555.259 874.861 548.998 871.215L547.992 872.944C554.61 876.798 562.423 878.705 571.393 878.705V876.705ZM549.004 871.219C542.768 867.529 537.954 862.404 534.554 855.825L532.777 856.743C536.346 863.649 541.419 869.055 547.986 872.94L549.004 871.219ZM534.555 855.827C531.154 849.211 529.438 841.512 529.438 832.705H527.438C527.438 841.776 529.207 849.797 532.776 856.741L534.555 855.827ZM529.438 832.705C529.438 823.819 531.155 816.103 534.554 809.527L532.777 808.609C529.206 815.518 527.438 823.559 527.438 832.705H529.438ZM534.555 809.525C537.955 802.909 542.768 797.787 549.001 794.136L547.99 792.41C541.419 796.259 536.345 801.667 532.776 808.611L534.555 809.525ZM549.002 794.135C555.262 790.452 562.713 788.591 571.393 788.591V786.591C562.421 786.591 554.607 788.517 547.988 792.411L549.002 794.135ZM571.393 788.591C580.073 788.591 587.504 790.452 593.724 794.133L594.743 792.412C588.161 788.517 580.364 786.591 571.393 786.591V788.591ZM593.73 794.137C600.001 797.789 604.831 802.911 608.231 809.525L610.009 808.611C606.44 801.665 601.345 796.257 594.737 792.409L593.73 794.137ZM608.232 809.527C611.631 816.103 613.347 823.819 613.347 832.705H615.347C615.347 823.559 613.579 815.518 610.008 808.609L608.232 809.527ZM613.347 832.705C613.347 841.512 611.631 849.211 608.231 855.827L610.009 856.741C613.579 849.797 615.347 841.776 615.347 832.705H613.347ZM608.232 855.825C604.832 862.403 600.001 867.527 593.727 871.218L594.741 872.941C601.345 869.056 606.438 863.65 610.008 856.743L608.232 855.825ZM593.728 871.217C587.507 874.861 580.075 876.705 571.393 876.705V878.705C580.362 878.705 588.158 876.798 594.739 872.942L593.728 871.217ZM571.506 859.955C575.723 859.955 579.314 858.756 582.209 856.309L580.918 854.782C578.434 856.881 575.32 857.955 571.506 857.955V859.955ZM582.215 856.304C585.062 853.857 587.178 850.552 588.589 846.438L586.697 845.789C585.38 849.63 583.443 852.612 580.912 854.787L582.215 856.304ZM588.586 846.446C590.032 842.343 590.745 837.701 590.745 832.534H588.745C588.745 837.519 588.057 841.93 586.7 845.781L588.586 846.446ZM590.745 832.534C590.745 827.367 590.032 822.725 588.586 818.622L586.7 819.287C588.057 823.138 588.745 827.549 588.745 832.534H590.745ZM588.589 818.63C587.178 814.516 585.062 811.211 582.215 808.764L580.912 810.281C583.443 812.456 585.38 815.438 586.697 819.279L588.589 818.63ZM582.215 808.764C579.32 806.277 575.727 805.057 571.506 805.057V807.057C575.316 807.057 578.428 808.147 580.912 810.281L582.215 808.764ZM571.506 805.057C567.25 805.057 563.605 806.276 560.638 808.755L561.92 810.29C564.483 808.149 567.657 807.057 571.506 807.057V805.057ZM560.633 808.76C557.748 811.204 555.593 814.508 554.143 818.622L556.029 819.287C557.382 815.447 559.356 812.463 561.926 810.286L560.633 808.76ZM554.14 818.63C552.734 822.731 552.041 827.37 552.041 832.534H554.041C554.041 827.547 554.711 823.133 556.032 819.279L554.14 818.63ZM552.041 832.534C552.041 837.698 552.734 842.337 554.14 846.438L556.032 845.789C554.711 841.935 554.041 837.522 554.041 832.534H552.041ZM554.143 846.446C555.593 850.56 557.748 853.864 560.633 856.308L561.926 854.782C559.356 852.606 557.382 849.622 556.029 845.781L554.143 846.446ZM560.644 856.318C563.612 858.757 567.254 859.955 571.506 859.955V857.955C567.653 857.955 564.477 856.879 561.914 854.773L560.644 856.318ZM629.846 876H628.846V877H629.846V876ZM629.846 788.727V787.727H628.846V788.727H629.846ZM652.914 788.727H653.914V787.727H652.914V788.727ZM652.914 804.125H651.914V805.125H652.914V804.125ZM653.937 804.125V805.125H654.643L654.879 804.46L653.937 804.125ZM663.028 792.023L662.456 791.202V791.202L663.028 792.023ZM693.539 792.08L692.959 792.894L692.964 792.898L693.539 792.08ZM701.948 804.125L700.984 804.391L701.187 805.125H701.948V804.125ZM702.857 804.125V805.125H703.563L703.799 804.46L702.857 804.125ZM712.516 792.136L713.057 792.978L713.059 792.977L712.516 792.136ZM748.994 795.375L748.279 796.074L748.284 796.079L748.994 795.375ZM756.664 876V877H757.664V876H756.664ZM732.516 876H731.516V877H732.516V876ZM728.653 811.17L727.967 811.899L728.653 811.17ZM708.71 811.739L709.456 812.404L709.461 812.399L708.71 811.739ZM705.016 876V877H706.016V876H705.016ZM681.551 876H680.551V877H681.551V876ZM677.857 811.341L677.134 812.032L677.14 812.037L677.857 811.341ZM660.982 809.58L661.512 810.428L661.516 810.425L660.982 809.58ZM655.926 815.205L656.811 815.669L656.814 815.663L655.926 815.205ZM654.051 876V877H655.051V876H654.051ZM630.846 876V788.727H628.846V876H630.846ZM629.846 789.727H652.914V787.727H629.846V789.727ZM651.914 788.727V804.125H653.914V788.727H651.914ZM652.914 805.125H653.937V803.125H652.914V805.125ZM654.879 804.46C656.631 799.533 659.537 795.672 663.599 792.843L662.456 791.202C658.034 794.282 654.879 798.49 652.995 803.79L654.879 804.46ZM663.599 792.843C667.651 790.022 672.52 788.591 678.255 788.591V786.591C672.172 786.591 666.89 788.115 662.456 791.202L663.599 792.843ZM678.255 788.591C684.066 788.591 688.95 790.041 692.959 792.894L694.119 791.265C689.719 788.133 684.413 786.591 678.255 786.591V788.591ZM692.964 792.898C696.974 795.715 699.643 799.533 700.984 804.391L702.912 803.859C701.451 798.566 698.513 794.353 694.114 791.261L692.964 792.898ZM701.948 805.125H702.857V803.125H701.948V805.125ZM703.799 804.46C705.502 799.678 708.575 795.856 713.057 792.978L711.976 791.295C707.139 794.401 703.773 798.572 701.915 803.79L703.799 804.46ZM713.059 792.977C717.571 790.065 722.926 788.591 729.164 788.591V786.591C722.599 786.591 716.855 788.147 711.974 791.296L713.059 792.977ZM729.164 788.591C737.075 788.591 743.415 791.101 748.279 796.074L749.709 794.676C744.421 789.27 737.541 786.591 729.164 786.591V788.591ZM748.284 796.079C753.16 800.992 755.664 808.017 755.664 817.307H757.664C757.664 807.657 755.055 800.061 749.703 794.671L748.284 796.079ZM755.664 817.307V876H757.664V817.307H755.664ZM756.664 875H732.516V877H756.664V875ZM733.516 876V822.08H731.516V876H733.516ZM733.516 822.08C733.516 817.061 732.18 813.117 729.338 810.442L727.967 811.899C730.277 814.072 731.516 817.401 731.516 822.08H733.516ZM729.338 810.442C726.559 807.827 723.086 806.534 718.994 806.534V808.534C722.628 808.534 725.595 809.666 727.967 811.899L729.338 810.442ZM718.994 806.534C714.368 806.534 710.644 808.021 707.958 811.079L709.461 812.399C711.699 809.851 714.831 808.534 718.994 808.534V806.534ZM707.963 811.074C705.303 814.061 704.016 817.972 704.016 822.705H706.016C706.016 818.346 707.192 814.946 709.456 812.404L707.963 811.074ZM704.016 822.705V876H706.016V822.705H704.016ZM705.016 875H681.551V877H705.016V875ZM682.551 876V821.568H680.551V876H682.551ZM682.551 821.568C682.551 817.086 681.255 813.407 678.575 810.645L677.14 812.037C679.384 814.351 680.551 817.49 680.551 821.568H682.551ZM678.58 810.65C675.942 807.888 672.466 806.534 668.255 806.534V808.534C671.999 808.534 674.925 809.718 677.134 812.032L678.58 810.65ZM668.255 806.534C665.387 806.534 662.776 807.264 660.448 808.734L661.516 810.425C663.507 809.168 665.744 808.534 668.255 808.534V806.534ZM660.452 808.732C658.165 810.161 656.361 812.177 655.037 814.746L656.814 815.663C657.99 813.383 659.557 811.649 661.512 810.428L660.452 808.732ZM655.04 814.741C653.701 817.295 653.051 820.264 653.051 823.614H655.051C655.051 820.524 655.65 817.886 656.811 815.669L655.04 814.741ZM653.051 823.614V876H655.051V823.614H653.051ZM654.051 875H629.846V877H654.051V875ZM792.134 872.25L791.639 873.119L791.645 873.122L792.134 872.25ZM777.248 856.682L776.36 857.141L776.361 857.143L777.248 856.682ZM777.248 809.125L776.359 808.668L777.248 809.125ZM791.964 793.273L791.452 792.413L791.45 792.415L791.964 793.273ZM830.43 790.375L830.08 791.312L830.088 791.315L830.43 790.375ZM843.498 798.614L842.795 799.324L842.798 799.328L843.498 798.614ZM852.248 812.477L851.311 812.828L851.312 812.83L852.248 812.477ZM855.373 838.557V839.557H856.373V838.557H855.373ZM781.68 838.557H780.68V839.557H781.68V838.557ZM781.68 823.557V822.557H780.68V823.557H781.68ZM832.589 823.557V824.557H833.589V823.557H832.589ZM830.316 814.295L829.445 814.786L830.316 814.295ZM824.009 807.989L823.504 808.852L823.511 808.856L823.519 808.86L824.009 807.989ZM804.975 808.216L805.486 809.075L805.49 809.073L804.975 808.216ZM798.384 814.977L799.254 815.471L799.257 815.466L798.384 814.977ZM795.941 824.352L794.941 824.341V824.352H795.941ZM798.328 849.807L797.435 850.258L797.44 850.267L798.328 849.807ZM823.1 858.5L822.779 857.553L823.1 858.5ZM828.839 855.091L828.149 854.367L828.839 855.091ZM832.475 849.523L832.541 848.525L831.803 848.476L831.54 849.168L832.475 849.523ZM854.862 851L855.84 851.207L856.078 850.078L854.928 850.002L854.862 851ZM847.873 865.091L847.121 864.431L847.121 864.432L847.873 865.091ZM834.35 874.409L834.722 875.338L834.725 875.336L834.35 874.409ZM815.316 876.705C806.475 876.705 798.923 874.915 792.624 871.378L791.645 873.122C798.3 876.858 806.203 878.705 815.316 878.705V876.705ZM792.63 871.381C786.361 867.804 781.533 862.758 778.135 856.221L776.361 857.143C779.932 864.015 785.029 869.347 791.639 873.119L792.63 871.381ZM778.136 856.223C774.739 849.649 773.021 841.84 773.021 832.761H771.021C771.021 842.092 772.787 850.229 776.36 857.141L778.136 856.223ZM773.021 832.761C773.021 823.915 774.737 816.198 778.137 809.582L776.359 808.668C772.789 815.613 771.021 823.653 771.021 832.761H773.021ZM778.137 809.582C781.54 802.962 786.318 797.819 792.478 794.131L791.45 792.415C784.959 796.302 779.926 801.727 776.359 808.668L778.137 809.582ZM792.475 794.132C798.662 790.45 805.941 788.591 814.35 788.591V786.591C805.638 786.591 797.994 788.52 791.452 792.413L792.475 794.132ZM814.35 788.591C819.999 788.591 825.239 789.501 830.08 791.312L830.78 789.438C825.697 787.537 820.217 786.591 814.35 786.591V788.591ZM830.088 791.315C834.955 793.085 839.187 795.754 842.795 799.324L844.202 797.903C840.385 794.125 835.905 791.302 830.772 789.435L830.088 791.315ZM842.798 799.328C846.431 802.887 849.273 807.378 851.311 812.828L853.185 812.127C851.057 806.44 848.066 801.689 844.198 797.899L842.798 799.328ZM851.312 812.83C853.344 818.223 854.373 824.576 854.373 831.909H856.373C856.373 824.394 855.319 817.792 853.184 812.125L851.312 812.83ZM854.373 831.909V838.557H856.373V831.909H854.373ZM855.373 837.557H781.68V839.557H855.373V837.557ZM782.68 838.557V823.557H780.68V838.557H782.68ZM781.68 824.557H832.589V822.557H781.68V824.557ZM833.589 823.557C833.589 819.923 832.797 816.662 831.187 813.805L829.445 814.786C830.865 817.307 831.589 820.221 831.589 823.557H833.589ZM831.187 813.805C829.583 810.956 827.349 808.722 824.5 807.117L823.519 808.86C826.049 810.285 828.019 812.256 829.445 814.786L831.187 813.805ZM824.515 807.126C821.689 805.47 818.422 804.659 814.748 804.659V806.659C818.12 806.659 821.027 807.401 823.504 808.852L824.515 807.126ZM814.748 804.659C810.913 804.659 807.474 805.551 804.461 807.358L805.49 809.073C808.159 807.472 811.235 806.659 814.748 806.659V804.659ZM804.464 807.356C801.51 809.113 799.189 811.494 797.512 814.489L799.257 815.466C800.762 812.778 802.834 810.652 805.486 809.075L804.464 807.356ZM797.515 814.484C795.834 817.444 794.981 820.737 794.941 824.341L796.941 824.363C796.977 821.073 797.753 818.116 799.254 815.471L797.515 814.484ZM794.941 824.352V838.614H796.941V824.352H794.941ZM794.941 838.614C794.941 843.054 795.759 846.946 797.435 850.258L799.22 849.355C797.714 846.379 796.941 842.81 796.941 838.614H794.941ZM797.44 850.267C799.153 853.574 801.576 856.142 804.703 857.946L805.702 856.213C802.92 854.608 800.76 852.328 799.216 849.347L797.44 850.267ZM804.703 857.946C807.836 859.753 811.519 860.636 815.714 860.636V858.636C811.803 858.636 808.479 857.815 805.702 856.213L804.703 857.946ZM815.714 860.636C818.497 860.636 821.07 860.244 823.421 859.447L822.779 857.553C820.661 858.271 818.309 858.636 815.714 858.636V860.636ZM823.421 859.447C825.783 858.646 827.825 857.438 829.529 855.815L828.149 854.367C826.671 855.774 824.887 856.838 822.779 857.553L823.421 859.447ZM829.529 855.815C831.235 854.19 832.528 852.204 833.41 849.877L831.54 849.168C830.756 851.235 829.624 852.962 828.149 854.367L829.529 855.815ZM832.409 850.521L854.796 851.998L854.928 850.002L832.541 848.525L832.409 850.521ZM853.883 850.793C852.781 856.009 850.528 860.549 847.121 864.431L848.625 865.75C852.264 861.602 854.669 856.748 855.84 851.207L853.883 850.793ZM847.121 864.432C843.752 868.277 839.38 871.298 833.976 873.482L834.725 875.336C840.382 873.05 845.025 869.859 848.625 865.75L847.121 864.432ZM833.979 873.481C828.627 875.621 822.413 876.705 815.316 876.705V878.705C822.614 878.705 829.089 877.591 834.722 875.338L833.979 873.481Z" fill="#515070"/>
<path fill-rule="evenodd" clip-rule="evenodd" d="M115.522 193.164C111.958 244.558 115.607 295.36 126.466 345.57C141.94 332.392 158.356 320.669 175.713 310.399C181.166 271.514 182.991 232.436 181.185 193.164C190.153 226.053 195.625 261.223 197.601 298.676C290.623 230.289 383.646 161.9 476.669 93.5133C493.571 79.5963 511.811 75.6876 531.388 81.7898C687.82 190.852 841.034 304.18 991.03 421.773C982.089 439.241 972.973 456.826 963.67 474.529C952.727 490.16 941.783 490.16 930.839 474.529C925.367 552.588 923.55 630.745 925.367 709C651.771 709 378.174 709 104.578 709C106.398 626.842 104.574 544.778 99.106 462.805C89.9427 480.477 77.1756 486.339 60.8025 480.391C13.512 426.75 24.4558 389.625 93.6341 369.017C100.931 308.628 108.228 250.01 115.522 193.164Z" fill="#FFBB97"/>
<path fill-rule="evenodd" clip-rule="evenodd" d="M498.558 181.44C518.344 181.339 536.588 187.201 553.277 199.025C645.348 268.86 738.37 337.248 832.345 404.187C837.806 474.421 839.634 544.762 837.817 615.211C622.584 615.211 407.359 615.211 192.13 615.211C188.522 540.553 192.17 466.305 203.074 392.464C302.013 321.43 400.507 251.088 498.558 181.44Z" fill="#F6F6F6"/>
<path fill-rule="evenodd" clip-rule="evenodd" d="M115.522 193.164C137.41 193.164 159.298 193.164 181.185 193.164C182.991 232.437 181.167 271.515 175.713 310.4C158.356 320.669 141.941 332.393 126.466 345.57C115.607 295.361 111.959 244.559 115.522 193.164Z" fill="#FF8E6E"/>
<path fill-rule="evenodd" clip-rule="evenodd" d="M159.297 415.911C180.674 481.256 187.97 551.597 181.185 626.935C403.709 626.935 626.238 626.935 848.76 626.935C846.943 556.486 848.771 486.145 854.232 415.911C872.475 431.542 890.708 447.174 908.951 462.805C914.423 540.864 916.24 619.022 914.423 697.276C648.126 697.276 381.822 697.276 115.522 697.276C113.702 615.119 115.526 533.054 120.993 451.082C137.612 443.304 150.379 431.581 159.297 415.911Z" fill="#FF8E6E"/>
</svg>
