<svg width="14" height="13" viewBox="0 0 14 13" fill="none" xmlns="http://www.w3.org/2000/svg">
<g clip-path="url(#clip0_27_2292)">
<path d="M2.91668 11.9166C2.76197 11.9166 2.61359 11.8596 2.5042 11.758C2.3948 11.6564 2.33334 11.5186 2.33334 11.375V1.62498C2.33334 1.48132 2.3948 1.34355 2.5042 1.24196C2.61359 1.14038 2.76197 1.08331 2.91668 1.08331H11.0833C11.2381 1.08331 11.3864 1.14038 11.4958 1.24196C11.6052 1.34355 11.6667 1.48132 11.6667 1.62498V3.24998H10.5V2.16665H3.50001V10.8333H10.5V9.74998H11.6667V11.375C11.6667 11.5186 11.6052 11.6564 11.4958 11.758C11.3864 11.8596 11.2381 11.9166 11.0833 11.9166H2.91668ZM10.5 8.66665V7.04165H6.41668V5.95831H10.5V4.33331L13.4167 6.49998L10.5 8.66665Z" fill="white" fill-opacity="0.8"/>
</g>
<defs>
<clipPath id="clip0_27_2292">
<rect width="14" height="13" fill="white"/>
</clipPath>
</defs>
</svg>
