<svg width="18" height="18" viewBox="0 0 18 18" fill="none" xmlns="http://www.w3.org/2000/svg">
<g clip-path="url(#clip0_1_1009)">
<path d="M15.75 9.9315V15H16.5V16.5H1.5V15H2.25V9.9315C1.78828 9.62332 1.40978 9.20591 1.14811 8.71632C0.886445 8.22674 0.749694 7.68012 0.750001 7.125C0.750001 6.50475 0.918 5.907 1.22475 5.39775L3.25875 1.875C3.32457 1.76099 3.41925 1.66631 3.53326 1.60049C3.64727 1.53466 3.7766 1.5 3.90825 1.5H14.0925C14.2241 1.5 14.3535 1.53466 14.4675 1.60049C14.5815 1.66631 14.6762 1.76099 14.742 1.875L16.7685 5.3865C17.2159 6.12965 17.3597 7.01665 17.1701 7.8631C16.9804 8.70956 16.4718 9.45036 15.75 9.9315ZM14.25 10.479C13.7343 10.5368 13.2123 10.4749 12.7244 10.298C12.2366 10.1211 11.7962 9.83396 11.4375 9.459C11.1227 9.7883 10.7443 10.0504 10.3254 10.2294C9.90647 10.4085 9.4556 10.5008 9 10.5008C8.54451 10.501 8.0937 10.4089 7.67477 10.2301C7.25584 10.0513 6.87747 9.78953 6.5625 9.4605C6.20372 9.83533 5.76328 10.1223 5.27546 10.2991C4.78765 10.4759 4.26562 10.5377 3.75 10.4797V15H14.25V10.4797V10.479ZM4.34175 3L2.517 6.15975C2.33968 6.59786 2.33436 7.08677 2.5021 7.52864C2.66984 7.9705 2.99826 8.33272 3.42164 8.5428C3.84501 8.75287 4.33211 8.79531 4.78544 8.66161C5.23876 8.52792 5.62488 8.22795 5.8665 7.82175C6.11775 7.194 7.0065 7.194 7.2585 7.82175C7.39747 8.17006 7.6377 8.4687 7.94814 8.67908C8.25859 8.88946 8.62499 9.00191 9 9.00191C9.37501 9.00191 9.74141 8.88946 10.0519 8.67908C10.3623 8.4687 10.6025 8.17006 10.7415 7.82175C10.9927 7.194 11.8815 7.194 12.1335 7.82175C12.2308 8.06134 12.3767 8.2782 12.5619 8.45871C12.747 8.63921 12.9676 8.77946 13.2095 8.87064C13.4515 8.96182 13.7098 9.00195 13.968 8.98851C14.2263 8.97508 14.479 8.90837 14.7102 8.79257C14.9414 8.67677 15.1462 8.5144 15.3117 8.31565C15.4771 8.1169 15.5997 7.88607 15.6716 7.63768C15.7435 7.38929 15.7633 7.1287 15.7297 6.87229C15.6961 6.61588 15.6098 6.3692 15.4762 6.14775L13.6575 3H4.3425H4.34175Z" fill="#515070"/>
</g>
<defs>
<clipPath id="clip0_1_1009">
<rect width="18" height="18" fill="white"/>
</clipPath>
</defs>
</svg>
