<svg width="18" height="18" viewBox="0 0 18 18" fill="none" xmlns="http://www.w3.org/2000/svg">
<path d="M3 2.25H15C15.4142 2.25 15.75 2.58579 15.75 3V15C15.75 15.4142 15.4142 15.75 15 15.75H3C2.58579 15.75 2.25 15.4142 2.25 15V3C2.25 2.58579 2.58579 2.25 3 2.25ZM3.75 3.75V14.25H14.25V3.75H3.75ZM6.75 5.25H9.375C10.8247 5.25 12 6.42525 12 7.875C12 9.32475 10.8247 10.5 9.375 10.5H8.25V12.75H6.75V5.25ZM8.25 6.75V9H9.375C9.9963 9 10.5 8.4963 10.5 7.875C10.5 7.25368 9.9963 6.75 9.375 6.75H8.25Z" fill="#FF8E6E"/>
</svg>
