<svg width="18" height="18" viewBox="0 0 18 18" fill="none" xmlns="http://www.w3.org/2000/svg">
<path d="M1.5 15.2625V13.8C1.8625 13.8 2.17188 13.7438 2.42813 13.6313C2.68438 13.5188 2.94375 13.3969 3.20625 13.2657C3.46875 13.1344 3.75938 13.0157 4.07812 12.9094C4.39688 12.8032 4.7875 12.75 5.25 12.75C5.725 12.75 6.11563 12.8032 6.42188 12.9094C6.72813 13.0157 7.0125 13.1344 7.275 13.2657C7.5375 13.3969 7.8 13.5188 8.0625 13.6313C8.325 13.7438 8.6375 13.8 9 13.8C9.3625 13.8 9.675 13.7438 9.9375 13.6313C10.2 13.5188 10.4625 13.3969 10.725 13.2657C10.9875 13.1344 11.275 13.0157 11.5875 12.9094C11.9 12.8032 12.2875 12.75 12.75 12.75C13.225 12.75 13.6188 12.8032 13.9313 12.9094C14.2438 13.0157 14.5313 13.1344 14.7938 13.2657C15.0563 13.3969 15.3188 13.5188 15.5813 13.6313C15.8438 13.7438 16.15 13.8 16.5 13.8V15.2625C16.025 15.2625 15.6281 15.2063 15.3094 15.0938C14.9906 14.9813 14.7 14.8594 14.4375 14.7282C14.175 14.5969 13.9188 14.4782 13.6688 14.3719C13.4188 14.2657 13.1125 14.2125 12.75 14.2125C12.4 14.2125 12.0969 14.2657 11.8406 14.3719C11.5844 14.4782 11.3281 14.5969 11.0719 14.7282C10.8156 14.8594 10.5281 14.9813 10.2094 15.0938C9.89062 15.2063 9.4875 15.2625 9 15.2625C8.5125 15.2625 8.10938 15.2063 7.79063 15.0938C7.47188 14.9813 7.18438 14.8594 6.92813 14.7282C6.67188 14.5969 6.41875 14.4782 6.16875 14.3719C5.91875 14.2657 5.6125 14.2125 5.25 14.2125C4.9 14.2125 4.59688 14.2657 4.34063 14.3719C4.08438 14.4782 3.825 14.5969 3.5625 14.7282C3.3 14.8594 3.00938 14.9813 2.69063 15.0938C2.37188 15.2063 1.975 15.2625 1.5 15.2625ZM1.5 11.925V10.4625C1.8625 10.4625 2.17188 10.4063 2.42813 10.2938C2.68438 10.1813 2.94375 10.0594 3.20625 9.92817C3.46875 9.79692 3.75938 9.67817 4.07812 9.57192C4.39688 9.46567 4.7875 9.41255 5.25 9.41255C5.725 9.41255 6.11563 9.46567 6.42188 9.57192C6.72813 9.67817 7.0125 9.79692 7.275 9.92817C7.5375 10.0594 7.8 10.1813 8.0625 10.2938C8.325 10.4063 8.6375 10.4625 9 10.4625C9.3625 10.4625 9.675 10.4063 9.9375 10.2938C10.2 10.1813 10.4625 10.0594 10.725 9.92817C10.9875 9.79692 11.275 9.67817 11.5875 9.57192C11.9 9.46567 12.2875 9.41255 12.75 9.41255C13.225 9.41255 13.6188 9.46567 13.9313 9.57192C14.2438 9.67817 14.5313 9.79692 14.7938 9.92817C15.0563 10.0594 15.3188 10.1813 15.5813 10.2938C15.8438 10.4063 16.15 10.4625 16.5 10.4625V11.925C16.025 11.925 15.6281 11.8688 15.3094 11.7563C14.9906 11.6438 14.7 11.5219 14.4375 11.3907C14.175 11.2594 13.9188 11.1407 13.6688 11.0344C13.4188 10.9282 13.1125 10.875 12.75 10.875C12.3875 10.875 12.0781 10.9282 11.8219 11.0344C11.5656 11.1407 11.3094 11.2594 11.0531 11.3907C10.7969 11.5219 10.5125 11.6438 10.2 11.7563C9.8875 11.8688 9.4875 11.925 9 11.925C8.5125 11.925 8.10938 11.8688 7.79063 11.7563C7.47188 11.6438 7.18438 11.5219 6.92813 11.3907C6.67188 11.2594 6.41875 11.1407 6.16875 11.0344C5.91875 10.9282 5.6125 10.875 5.25 10.875C4.9 10.875 4.59688 10.9282 4.34063 11.0344C4.08438 11.1407 3.825 11.2594 3.5625 11.3907C3.3 11.5219 3.00938 11.6438 2.69063 11.7563C2.37188 11.8688 1.975 11.925 1.5 11.925ZM1.5 8.58755V7.12505C1.8625 7.12505 2.17188 7.0688 2.42813 6.9563C2.68438 6.8438 2.94375 6.72192 3.20625 6.59067C3.46875 6.45942 3.75938 6.34067 4.07812 6.23442C4.39688 6.12817 4.7875 6.07505 5.25 6.07505C5.725 6.07505 6.11563 6.12817 6.42188 6.23442C6.72813 6.34067 7.0125 6.45942 7.275 6.59067C7.5375 6.72192 7.8 6.8438 8.0625 6.9563C8.325 7.0688 8.6375 7.12505 9 7.12505C9.3625 7.12505 9.675 7.0688 9.9375 6.9563C10.2 6.8438 10.4625 6.72192 10.725 6.59067C10.9875 6.45942 11.275 6.34067 11.5875 6.23442C11.9 6.12817 12.2875 6.07505 12.75 6.07505C13.225 6.07505 13.6188 6.12817 13.9313 6.23442C14.2438 6.34067 14.5313 6.45942 14.7938 6.59067C15.0563 6.72192 15.3188 6.8438 15.5813 6.9563C15.8438 7.0688 16.15 7.12505 16.5 7.12505V8.58755C16.025 8.58755 15.6281 8.5313 15.3094 8.4188C14.9906 8.3063 14.7 8.18442 14.4375 8.05317C14.175 7.92192 13.9188 7.80317 13.6688 7.69692C13.4188 7.59067 13.1125 7.53755 12.75 7.53755C12.4 7.53755 12.0969 7.59067 11.8406 7.69692C11.5844 7.80317 11.3281 7.92192 11.0719 8.05317C10.8156 8.18442 10.5281 8.3063 10.2094 8.4188C9.89062 8.5313 9.4875 8.58755 9 8.58755C8.5125 8.58755 8.10938 8.5313 7.79063 8.4188C7.47188 8.3063 7.18438 8.18442 6.92813 8.05317C6.67188 7.92192 6.41875 7.80317 6.16875 7.69692C5.91875 7.59067 5.6125 7.53755 5.25 7.53755C4.9 7.53755 4.59688 7.59067 4.34063 7.69692C4.08438 7.80317 3.825 7.92192 3.5625 8.05317C3.3 8.18442 3.00938 8.3063 2.69063 8.4188C2.37188 8.5313 1.975 8.58755 1.5 8.58755ZM1.5 5.25005V3.78755C1.8625 3.78755 2.17188 3.7313 2.42813 3.6188C2.68438 3.5063 2.94375 3.38442 3.20625 3.25317C3.46875 3.12192 3.75938 3.00317 4.07812 2.89692C4.39688 2.79067 4.7875 2.73755 5.25 2.73755C5.725 2.73755 6.11563 2.79067 6.42188 2.89692C6.72813 3.00317 7.0125 3.12192 7.275 3.25317C7.5375 3.38442 7.8 3.5063 8.0625 3.6188C8.325 3.7313 8.6375 3.78755 9 3.78755C9.3625 3.78755 9.675 3.7313 9.9375 3.6188C10.2 3.5063 10.4625 3.38442 10.725 3.25317C10.9875 3.12192 11.275 3.00317 11.5875 2.89692C11.9 2.79067 12.2875 2.73755 12.75 2.73755C13.225 2.73755 13.6188 2.79067 13.9313 2.89692C14.2438 3.00317 14.5313 3.12192 14.7938 3.25317C15.0563 3.38442 15.3188 3.5063 15.5813 3.6188C15.8438 3.7313 16.15 3.78755 16.5 3.78755V5.25005C16.025 5.25005 15.6281 5.1938 15.3094 5.0813C14.9906 4.9688 14.7 4.84692 14.4375 4.71567C14.175 4.58442 13.9188 4.46567 13.6688 4.35942C13.4188 4.25317 13.1125 4.20005 12.75 4.20005C12.4 4.20005 12.0969 4.25317 11.8406 4.35942C11.5844 4.46567 11.3281 4.58442 11.0719 4.71567C10.8156 4.84692 10.5281 4.9688 10.2094 5.0813C9.89062 5.1938 9.4875 5.25005 9 5.25005C8.5125 5.25005 8.10938 5.1938 7.79063 5.0813C7.47188 4.9688 7.18438 4.84692 6.92813 4.71567C6.67188 4.58442 6.41875 4.46567 6.16875 4.35942C5.91875 4.25317 5.6125 4.20005 5.25 4.20005C4.9 4.20005 4.59688 4.25317 4.34063 4.35942C4.08438 4.46567 3.825 4.58442 3.5625 4.71567C3.3 4.84692 3.00938 4.9688 2.69063 5.0813C2.37188 5.1938 1.975 5.25005 1.5 5.25005Z" fill="white"/>
</svg>
