<svg width="18" height="18" viewBox="0 0 18 18" fill="none" xmlns="http://www.w3.org/2000/svg">
<g clip-path="url(#clip0_1_907)">
<path fill-rule="evenodd" clip-rule="evenodd" d="M9 0.9375C9.31066 0.9375 9.5625 1.18934 9.5625 1.5V4.125C9.5625 4.43566 9.31066 4.6875 9 4.6875C8.68934 4.6875 8.4375 4.43566 8.4375 4.125V1.5C8.4375 1.18934 8.68934 0.9375 9 0.9375Z" fill="#515070"/>
<path fill-rule="evenodd" clip-rule="evenodd" d="M12 2.0625C12.3107 2.0625 12.5625 2.31434 12.5625 2.625V4.125C12.5625 4.43566 12.3107 4.6875 12 4.6875C11.6893 4.6875 11.4375 4.43566 11.4375 4.125V2.625C11.4375 2.31434 11.6893 2.0625 12 2.0625Z" fill="#515070"/>
<path fill-rule="evenodd" clip-rule="evenodd" d="M6 2.0625C6.31066 2.0625 6.5625 2.31434 6.5625 2.625V4.125C6.5625 4.43566 6.31066 4.6875 6 4.6875C5.68934 4.6875 5.4375 4.43566 5.4375 4.125V2.625C5.4375 2.31434 5.68934 2.0625 6 2.0625Z" fill="#515070"/>
<path fill-rule="evenodd" clip-rule="evenodd" d="M0.9375 6.375C0.9375 6.06434 1.18934 5.8125 1.5 5.8125H16.5C16.8107 5.8125 17.0625 6.06434 17.0625 6.375C17.0625 8.72815 15.5566 10.7394 13.3876 11.8843L13.125 11.3868L13.3876 11.8843C12.1208 12.5529 10.6125 12.9375 9 12.9375C7.38745 12.9375 5.87924 12.5529 4.61243 11.8843L4.61243 11.8843C2.44341 10.7394 0.9375 8.72815 0.9375 6.375ZM2.09958 6.9375C2.31306 8.54976 3.43566 9.99103 5.13757 10.8893C6.23761 11.47 7.56485 11.8125 9 11.8125C10.4352 11.8125 11.7624 11.47 12.8624 10.8893C14.5643 9.99103 15.6869 8.54976 15.9004 6.9375H2.09958Z" fill="#515070"/>
<path fill-rule="evenodd" clip-rule="evenodd" d="M3.36255 14.625C3.36255 14.3143 3.61439 14.0625 3.92505 14.0625H14.0749C14.3856 14.0625 14.6374 14.3143 14.6374 14.625C14.6374 14.9357 14.3856 15.1875 14.0749 15.1875H3.92505C3.61439 15.1875 3.36255 14.9357 3.36255 14.625Z" fill="#515070"/>
<path fill-rule="evenodd" clip-rule="evenodd" d="M5.03337 10.8471C5.33146 10.9346 5.50223 11.2471 5.41478 11.5452L3.91478 16.6584C3.82733 16.9565 3.51478 17.1273 3.21668 17.0399C2.91859 16.9524 2.74782 16.6399 2.83527 16.3418L4.33527 11.2285C4.42272 10.9304 4.73527 10.7597 5.03337 10.8471Z" fill="#515070"/>
<path fill-rule="evenodd" clip-rule="evenodd" d="M12.9667 10.8471C13.2648 10.7597 13.5773 10.9304 13.6648 11.2285L15.1648 16.3418C15.2522 16.6399 15.0815 16.9524 14.7834 17.0399C14.4853 17.1273 14.1727 16.9565 14.0853 16.6584L12.5853 11.5452C12.4978 11.2471 12.6686 10.9346 12.9667 10.8471Z" fill="#515070"/>
<path fill-rule="evenodd" clip-rule="evenodd" d="M6.9375 9.375C6.9375 9.06434 7.18934 8.8125 7.5 8.8125H10.5C10.8107 8.8125 11.0625 9.06434 11.0625 9.375C11.0625 9.68566 10.8107 9.9375 10.5 9.9375H7.5C7.18934 9.9375 6.9375 9.68566 6.9375 9.375Z" fill="#515070"/>
</g>
<defs>
<clipPath id="clip0_1_907">
<rect width="18" height="18" fill="white"/>
</clipPath>
</defs>
</svg>
