<svg width="16" height="17" viewBox="0 0 16 17" fill="none" xmlns="http://www.w3.org/2000/svg">
<g clip-path="url(#clip0_1_1411)">
<path fill-rule="evenodd" clip-rule="evenodd" d="M10.9797 1.04098C11.175 0.833509 11.4915 0.833509 11.6868 1.04098L15.0201 4.58264C15.2154 4.79011 15.2154 5.12648 15.0201 5.33394L5.02014 15.9589C4.82488 16.1664 4.50829 16.1664 4.31303 15.9589L0.979699 12.4173C0.784436 12.2098 0.784436 11.8734 0.979699 11.666L10.9797 1.04098ZM11.3333 2.16793L2.04036 12.0416L4.66659 14.832L13.9595 4.95829L11.3333 2.16793Z" fill="#515070"/>
<path fill-rule="evenodd" clip-rule="evenodd" d="M10.4368 2.3691C10.6321 2.57657 10.6321 2.91294 10.4368 3.1204L2.93681 11.0892C2.74154 11.2966 2.42496 11.2966 2.2297 11.0892C2.03444 10.8817 2.03444 10.5453 2.2297 10.3379L9.7297 2.3691C9.92496 2.16163 10.2415 2.16163 10.4368 2.3691Z" fill="#515070"/>
<path fill-rule="evenodd" clip-rule="evenodd" d="M2.64645 9.89522C2.84171 9.68776 3.15829 9.68776 3.35355 9.89522L4.68689 11.3119C4.88215 11.5194 4.88215 11.8557 4.68689 12.0632C4.49162 12.2707 4.17504 12.2707 3.97978 12.0632L2.64645 10.6465C2.45118 10.4391 2.45118 10.1027 2.64645 9.89522Z" fill="#515070"/>
<path fill-rule="evenodd" clip-rule="evenodd" d="M4.31319 8.12435C4.50846 7.91688 4.82504 7.91688 5.0203 8.12435L7.0203 10.2493C7.21556 10.4568 7.21556 10.7932 7.0203 11.0007C6.82504 11.2081 6.50846 11.2081 6.31319 11.0007L4.31319 8.87565C4.11793 8.66818 4.11793 8.33182 4.31319 8.12435Z" fill="#515070"/>
<path fill-rule="evenodd" clip-rule="evenodd" d="M5.9797 6.35348C6.17496 6.14601 6.49154 6.14601 6.68681 6.35348L8.02014 7.77014C8.2154 7.97761 8.2154 8.31398 8.02014 8.52144C7.82488 8.72891 7.50829 8.72891 7.31303 8.52144L5.9797 7.10478C5.78444 6.89731 5.78444 6.56094 5.9797 6.35348Z" fill="#515070"/>
<path fill-rule="evenodd" clip-rule="evenodd" d="M7.64645 4.58272C7.84171 4.37526 8.15829 4.37526 8.35355 4.58272L10.3536 6.70772C10.5488 6.91519 10.5488 7.25156 10.3536 7.45902C10.1583 7.66649 9.84171 7.66649 9.64645 7.45902L7.64645 5.33402C7.45118 5.12656 7.45118 4.79019 7.64645 4.58272Z" fill="#515070"/>
<path fill-rule="evenodd" clip-rule="evenodd" d="M9.31319 2.81185C9.50846 2.60438 9.82504 2.60438 10.0203 2.81185L11.3536 4.22852C11.5489 4.43598 11.5489 4.77235 11.3536 4.97982C11.1584 5.18728 10.8418 5.18728 10.6465 4.97982L9.31319 3.56315C9.11793 3.35568 9.11793 3.01932 9.31319 2.81185Z" fill="#515070"/>
</g>
<defs>
<clipPath id="clip0_1_1411">
<rect width="16" height="17" fill="white"/>
</clipPath>
</defs>
</svg>
