<svg width="15" height="15" viewBox="0 0 15 15" fill="none" xmlns="http://www.w3.org/2000/svg">
<g clip-path="url(#clip0_41_6155)">
<path fill-rule="evenodd" clip-rule="evenodd" d="M10.2935 0.918544C10.4766 0.735485 10.7734 0.735485 10.9565 0.918544L14.0815 4.04354C14.2645 4.2266 14.2645 4.5234 14.0815 4.70646L4.70646 14.0815C4.5234 14.2645 4.2266 14.2645 4.04354 14.0815L0.918544 10.9565C0.735485 10.7734 0.735485 10.4766 0.918544 10.2935L10.2935 0.918544ZM10.625 1.91291L1.91291 10.625L4.375 13.0871L13.0871 4.375L10.625 1.91291Z" fill="#FF8E6E"/>
<path fill-rule="evenodd" clip-rule="evenodd" d="M9.78458 2.09042C9.96764 2.27348 9.96764 2.57027 9.78458 2.75333L2.75333 9.78458C2.57027 9.96764 2.27348 9.96764 2.09042 9.78458C1.90736 9.60152 1.90736 9.30473 2.09042 9.12167L9.12167 2.09042C9.30473 1.90736 9.60152 1.90736 9.78458 2.09042Z" fill="#FF8E6E"/>
<path fill-rule="evenodd" clip-rule="evenodd" d="M2.48104 8.73104C2.6641 8.54799 2.9609 8.54799 3.14396 8.73104L4.39396 9.98104C4.57701 10.1641 4.57701 10.4609 4.39396 10.644C4.2109 10.827 3.9141 10.827 3.73104 10.644L2.48104 9.39396C2.29799 9.2109 2.29799 8.9141 2.48104 8.73104Z" fill="#FF8E6E"/>
<path fill-rule="evenodd" clip-rule="evenodd" d="M4.04354 7.16854C4.2266 6.98549 4.5234 6.98549 4.70646 7.16854L6.58146 9.04354C6.76451 9.2266 6.76451 9.5234 6.58146 9.70646C6.3984 9.88951 6.1016 9.88951 5.91854 9.70646L4.04354 7.83146C3.86049 7.6484 3.86049 7.3516 4.04354 7.16854Z" fill="#FF8E6E"/>
<path fill-rule="evenodd" clip-rule="evenodd" d="M5.60604 5.60604C5.7891 5.42299 6.0859 5.42299 6.26896 5.60604L7.51896 6.85604C7.70201 7.0391 7.70201 7.3359 7.51896 7.51896C7.3359 7.70201 7.0391 7.70201 6.85604 7.51896L5.60604 6.26896C5.42299 6.0859 5.42299 5.7891 5.60604 5.60604Z" fill="#FF8E6E"/>
<path fill-rule="evenodd" clip-rule="evenodd" d="M7.16854 4.04354C7.3516 3.86049 7.6484 3.86049 7.83146 4.04354L9.70646 5.91854C9.88951 6.1016 9.88951 6.3984 9.70646 6.58146C9.5234 6.76451 9.2266 6.76451 9.04354 6.58146L7.16854 4.70646C6.98549 4.5234 6.98549 4.2266 7.16854 4.04354Z" fill="#FF8E6E"/>
<path fill-rule="evenodd" clip-rule="evenodd" d="M8.73104 2.48104C8.9141 2.29799 9.2109 2.29799 9.39396 2.48104L10.644 3.73104C10.827 3.9141 10.827 4.2109 10.644 4.39396C10.4609 4.57701 10.1641 4.57701 9.98104 4.39396L8.73104 3.14396C8.54799 2.9609 8.54799 2.6641 8.73104 2.48104Z" fill="#FF8E6E"/>
</g>
<defs>
<clipPath id="clip0_41_6155">
<rect width="15" height="15" fill="white"/>
</clipPath>
</defs>
</svg>
