<svg width="12" height="18" viewBox="0 0 12 18" fill="none" xmlns="http://www.w3.org/2000/svg">
<path d="M2.57143 3.27273C2.57143 1.46525 4.10645 0 6 0C7.89351 0 9.42857 1.46525 9.42857 3.27273V7.57203C10.983 8.60695 12 10.3265 12 12.2727C12 15.4358 9.31371 18 6 18C2.68629 18 0 15.4358 0 12.2727C0 10.3265 1.01702 8.60695 2.57143 7.57203V3.27273ZM3.55217 8.91417C2.40808 9.6759 1.71429 10.9172 1.71429 12.2727C1.71429 14.5321 3.63307 16.3636 6 16.3636C8.36691 16.3636 10.2857 14.5321 10.2857 12.2727C10.2857 10.9172 9.59194 9.6759 8.44783 8.91417L7.71429 8.42572V3.27273C7.71429 2.36899 6.9468 1.63636 6 1.63636C5.0532 1.63636 4.28571 2.36899 4.28571 3.27273V8.42572L3.55217 8.91417ZM5.14286 9.10309V3.27273H6.85714V9.10309C8.33589 9.46645 9.42857 10.7478 9.42857 12.2727C9.42857 14.0802 7.89351 15.5455 6 15.5455C4.10645 15.5455 2.57143 14.0802 2.57143 12.2727C2.57143 10.7478 3.66409 9.46645 5.14286 9.10309ZM6 13.9091C6.9468 13.9091 7.71429 13.1765 7.71429 12.2727C7.71429 11.369 6.9468 10.6364 6 10.6364C5.0532 10.6364 4.28571 11.369 4.28571 12.2727C4.28571 13.1765 5.0532 13.9091 6 13.9091Z" fill="white"/>
</svg>
