<svg width="18" height="18" viewBox="0 0 18 18" fill="none" xmlns="http://www.w3.org/2000/svg">
<path fill-rule="evenodd" clip-rule="evenodd" d="M4.67553 6.37704C4.16534 6.71716 3.9375 7.12527 3.9375 7.5V7.6875H9.5625V7.5C9.5625 7.12527 9.33466 6.71716 8.82447 6.37704C8.31822 6.03953 7.58643 5.8125 6.75 5.8125C5.91357 5.8125 5.18178 6.03953 4.67553 6.37704ZM4.05149 5.44098C4.76674 4.96415 5.72245 4.6875 6.75 4.6875C7.77755 4.6875 8.73326 4.96415 9.44851 5.44098C10.1598 5.9152 10.6875 6.63209 10.6875 7.5V8.25C10.6875 8.56066 10.4357 8.8125 10.125 8.8125H3.375C3.06434 8.8125 2.8125 8.56066 2.8125 8.25V7.5C2.8125 6.63209 3.34017 5.9152 4.05149 5.44098Z" fill="#515070"/>
<path fill-rule="evenodd" clip-rule="evenodd" d="M7.74289 1.97458C8.66294 1.32288 9.90467 0.9375 11.25 0.9375C12.5953 0.9375 13.8371 1.32288 14.7571 1.97458C15.6758 2.62533 16.3125 3.57637 16.3125 4.6875V16.5C16.3125 16.8107 16.0607 17.0625 15.75 17.0625C15.4393 17.0625 15.1875 16.8107 15.1875 16.5V4.6875C15.1875 4.03822 14.8168 3.39552 14.1068 2.89261C13.3982 2.39067 12.3899 2.0625 11.25 2.0625C10.1101 2.0625 9.10179 2.39067 8.39316 2.89261C7.68317 3.39552 7.3125 4.03822 7.3125 4.6875V5.25C7.3125 5.56066 7.06066 5.8125 6.75 5.8125C6.43934 5.8125 6.1875 5.56066 6.1875 5.25V4.6875C6.1875 3.57637 6.82419 2.62533 7.74289 1.97458Z" fill="#515070"/>
<path fill-rule="evenodd" clip-rule="evenodd" d="M6.75 9.9375C7.06066 9.9375 7.3125 10.1893 7.3125 10.5V10.875C7.3125 11.1857 7.06066 11.4375 6.75 11.4375C6.43934 11.4375 6.1875 11.1857 6.1875 10.875V10.5C6.1875 10.1893 6.43934 9.9375 6.75 9.9375Z" fill="#515070"/>
<path fill-rule="evenodd" clip-rule="evenodd" d="M4.00655 9.9828C4.29848 10.089 4.44901 10.4118 4.34277 10.7037L4.21453 11.0561C4.10829 11.3481 3.78551 11.4986 3.49358 11.3924C3.20165 11.2861 3.05112 10.9633 3.15736 10.6714L3.2856 10.319C3.39184 10.0271 3.71462 9.87656 4.00655 9.9828Z" fill="#515070"/>
<path fill-rule="evenodd" clip-rule="evenodd" d="M1.75659 15.6078C2.04851 15.7141 2.19903 16.0368 2.09278 16.3288L1.96452 16.6812C1.85827 16.9731 1.53548 17.1236 1.24356 17.0173C0.951634 16.9111 0.801115 16.5883 0.907366 16.2964L1.03562 15.944C1.14188 15.6521 1.46466 15.5016 1.75659 15.6078Z" fill="#515070"/>
<path fill-rule="evenodd" clip-rule="evenodd" d="M6.75 15.5625C7.06066 15.5625 7.3125 15.8143 7.3125 16.125V16.5C7.3125 16.8107 7.06066 17.0625 6.75 17.0625C6.43934 17.0625 6.1875 16.8107 6.1875 16.5V16.125C6.1875 15.8143 6.43934 15.5625 6.75 15.5625Z" fill="#515070"/>
<path fill-rule="evenodd" clip-rule="evenodd" d="M6.75 12.5625C7.06066 12.5625 7.3125 12.8143 7.3125 13.125V13.875C7.3125 14.1857 7.06066 14.4375 6.75 14.4375C6.43934 14.4375 6.1875 14.1857 6.1875 13.875V13.125C6.1875 12.8143 6.43934 12.5625 6.75 12.5625Z" fill="#515070"/>
<path fill-rule="evenodd" clip-rule="evenodd" d="M2.94563 12.619C3.23756 12.7253 3.38808 13.0481 3.28183 13.34L3.02531 14.0448C2.91906 14.3367 2.59628 14.4872 2.30435 14.381C2.01243 14.2747 1.86191 13.9519 1.96816 13.66L2.22467 12.9552C2.33092 12.6633 2.65371 12.5128 2.94563 12.619Z" fill="#515070"/>
</svg>
