<svg width="128" height="128" viewBox="0 0 128 128" fill="none" xmlns="http://www.w3.org/2000/svg">
<path d="M7.44991 123.27C9.71991 125.73 19.0699 121.44 26.4499 118C31.9799 115.43 54.1099 106.35 65.1099 101.64C68.0799 100.37 72.3999 98.71 75.5099 94.62C78.2699 90.98 85.5899 75.52 70.8499 59.86C55.8899 43.96 40.4799 48.35 34.7199 52.43C31.3299 54.83 28.5699 60.24 27.3299 62.99C22.0899 74.61 14.6199 95.9 11.5799 104.27C9.34991 110.44 5.19991 120.83 7.44991 123.27Z" fill="#FFC107"/>
<path d="M25.85 66.49C25.99 68.23 26.34 71.06 27.54 76.51C28.36 80.25 29.7 84.17 30.79 86.76C34.06 94.55 38.65 97.69 43.3 100.21C51.2 104.49 56.57 105.29 56.57 105.29L50.13 107.92C50.13 107.92 46.23 107.11 40.91 104.49C35.84 101.99 30.56 97.76 26.7 89.48C25.03 85.89 24.06 82.41 23.5 79.65C22.81 76.23 22.7 74.29 22.7 74.29L25.85 66.49ZM17.94 86.77C17.94 86.77 18.74 93.26 24.1 101.45C30.38 111.03 39.15 112.6 39.15 112.6L33.32 115C33.32 115 26.81 113.01 20.62 104.56C16.76 99.29 15.68 92.99 15.68 92.99L17.94 86.77ZM12.39 102.15C12.39 102.15 13.85 107.75 17.05 111.93C20.86 116.92 25.71 118.37 25.71 118.37L21.24 120.35C21.24 120.35 17.85 119.64 14.14 114.94C11.32 111.37 10.52 107.27 10.52 107.27L12.39 102.15Z" fill="#FF8F00"/>
<path opacity="0.44" d="M9.96005 116.37C9.76005 115.92 9.76005 115.41 9.97005 114.97L35.4401 62.15L39.6301 77.9L12.8301 116.61C12.1101 117.69 10.4901 117.55 9.96005 116.37Z" fill="#FFFDE7"/>
<path d="M41.65 83.19C53.55 97.11 67.1 95.37 71.61 91.85C76.13 88.32 79.7 76.19 67.85 62.5C55.43 48.16 41.37 52.25 38.12 55.35C34.87 58.45 30.73 70.42 41.65 83.19Z" fill="url(#paint0_linear_1_1563)"/>
<path d="M82.5199 88.92C78.1799 85.28 75.8699 85.93 72.7699 87.22C68.7699 88.88 62.4799 90.11 53.9399 87.22L56.5099 81.03C61.5799 82.74 65.2499 81.91 68.4199 80.04C72.4999 77.64 78.0799 74.35 86.7599 81.64C90.3799 84.68 94.0899 86.7 96.8099 85.78C98.7899 85.12 99.8399 82.17 100.37 79.82C100.42 79.61 100.5 79.01 100.56 78.48C101.04 74.81 101.84 66.89 107.74 62.84C114.05 58.51 120.68 58.51 120.68 58.51L121.88 70.43C118.83 69.98 116.71 70.6 114.92 71.59C108.18 75.34 114.05 89.74 103.56 94.58C93.4699 99.27 85.2199 91.18 82.5199 88.92Z" fill="#03A9F4"/>
<path d="M45.4 73.72L41.06 69.83C49.03 60.93 46.93 54.39 45.4 49.63C45.09 48.67 44.8 47.76 44.61 46.89C43.93 43.81 43.79 41.13 44 38.79C40.94 34.98 39.59 30.99 39.5 30.72C37.64 25.09 39.04 19.6 42.25 14.45C48.74 4 60.49 4 60.49 4L64.41 14.49C61.43 14.37 51.66 14.52 48.66 19.25C44.87 25.21 47.36 28.89 47.54 29.31C48.27 28.36 49.01 27.6 49.67 27.01C54.46 22.76 58.62 22.15 61.27 22.39C64.25 22.66 66.95 24.16 68.88 26.62C70.99 29.32 71.86 32.83 71.19 36.02C70.54 39.13 68.47 41.76 65.36 43.43C59.93 46.35 55.41 45.95 52.38 44.94C52.4 45.01 52.41 45.09 52.43 45.16C52.54 45.66 52.76 46.36 53.02 47.17C54.79 52.65 58.08 61.35 45.4 73.72ZM52.75 36.19C53.33 36.61 53.94 36.96 54.57 37.21C56.67 38.05 58.96 37.77 61.56 36.37C63.09 35.55 63.27 34.67 63.33 34.38C63.51 33.51 63.21 32.4 62.56 31.57C61.99 30.84 61.33 30.46 60.54 30.38C59.04 30.25 57.01 31.2 54.98 33.01C54.01 33.88 53.27 34.95 52.75 36.19Z" fill="#F44336"/>
<path d="M62.7701 75.35L56.5601 75.18C56.5601 75.18 59.5101 58.52 69.0601 55.72C70.8501 55.2 72.8101 54.67 74.7801 54.38C75.9501 54.2 77.8001 53.93 78.7101 53.59C78.9201 52.02 78.2601 50.02 77.5201 47.75C76.9401 45.99 76.3401 44.18 76.0201 42.2C75.4001 38.34 76.4301 34.93 78.9201 32.58C81.9601 29.73 86.8701 28.82 92.4101 30.08C95.5701 30.8 97.9001 32.35 99.9501 33.71C102.88 35.66 104.59 36.65 108.17 34.24C112.5 31.32 106.84 19.89 103.83 13.29L115.06 8.60999C116.57 11.91 123.86 28.89 119.05 38.58C117.43 41.84 114.64 44 110.98 44.81C103.02 46.59 98.3601 43.49 94.9601 41.23C93.3501 40.16 91.9401 39.32 90.4101 38.88C79.7801 35.85 94.6201 51.49 87.6701 58.52C83.5001 62.73 73.3101 63.84 72.6501 64C66.0901 65.58 62.7701 75.35 62.7701 75.35Z" fill="#F48FB1"/>
<path d="M43.9901 38.79C43.8001 40.99 43.7101 42.3 44.2801 45.16C47.0301 47.18 53.0201 47.18 53.0201 47.18C52.7601 46.37 52.5301 45.67 52.4301 45.17C52.4101 45.1 52.4001 45.02 52.3801 44.95C46.2901 41.91 43.9901 38.79 43.9901 38.79Z" fill="#C92B27"/>
<path d="M31.5299 48.64L21.1899 43.57L26.3399 36.13L34.4499 41.5L31.5299 48.64Z" fill="#FFC107"/>
<path d="M16.29 34.6001C11.01 33.8901 5.63004 29.4101 5.04004 28.9001L10.23 22.8101C11.8 24.1401 15.13 26.3701 17.36 26.6701L16.29 34.6001Z" fill="#FB8C00"/>
<path d="M25.61 21.27L18.01 18.78C18.88 16.12 19.11 13.25 18.66 10.48L26.56 9.20996C27.21 13.23 26.88 17.4 25.61 21.27Z" fill="#03A9F4"/>
<path d="M73.073 15.325L80.888 13.615L83.145 23.931L75.33 25.641L73.073 15.325Z" fill="#FB8C00"/>
<path d="M92.46 17.77L86.96 11.96C89.84 9.23 90.5 5.66 90.5 5.62L98.4 6.91C98.3 7.54 97.29 13.2 92.46 17.77Z" fill="#FFC107"/>
<path d="M95.5139 48.58L102.501 46.396L104.887 54.032L97.8999 56.216L95.5139 48.58Z" fill="#FB8C00"/>
<path d="M97.55 113.03L89.6 112.09C89.94 109.26 87.83 105.79 87.25 105.02L93.65 100.22C94.13 100.85 98.3 106.62 97.55 113.03Z" fill="#F44336"/>
<path d="M120.37 102.89C117.38 102.44 114.32 102.26 111.3 102.37L111.03 94.37C114.54 94.25 118.09 94.45 121.56 94.98L120.37 102.89Z" fill="#FB8C00"/>
<path d="M109.614 113.902L115.234 108.209L122.969 115.847L117.349 121.539L109.614 113.902Z" fill="#F48FB1"/>
<path d="M93.1029 63.334L98.8829 69.943L92.2739 75.723L86.4939 69.114L93.1029 63.334Z" fill="#F44336"/>
<defs>
<linearGradient id="paint0_linear_1_1563" x1="74.384" y1="61.839" x2="44.617" y2="79.699" gradientUnits="userSpaceOnUse">
<stop offset="0.024" stop-color="#8F4700"/>
<stop offset="1" stop-color="#703E2D"/>
</linearGradient>
</defs>
</svg>
